<?xml version="1.0" standalone="no"?>
<!DOCTYPE svg PUBLIC "-//W3C//DTD SVG 1.1//EN" "http://www.w3.org/Graphics/SVG/1.1/DTD/svg11.dtd" >
<svg xmlns="http://www.w3.org/2000/svg">
<metadata>Generated by IcoMoon</metadata>
<defs>
<font id="artifactory" horiz-adv-x="1024">
<font-face units-per-em="1024" ascent="960" descent="-64" />
<missing-glyph horiz-adv-x="1024" />
<glyph unicode="&#x20;" horiz-adv-x="0" d="" />
<glyph unicode="&#x21;" glyph-name="remote-repo" d="M752 792c-4 0-14 4-20 10-62 56-138 92-226 92-82 0-158-36-220-92-10-10-30-10-40 0s-10 30 0 40c72 66 164 108 260 108 98 0 190-42 262-108 10-10 10-30 0-40-6-6-10-10-16-10zM692 688c-6 0-12 0-16 6-124 98-216 98-332 0-12-6-26-6-36 4-12 16-12 32 4 42 138 112 256 112 400 0 10-10 16-26 4-42-10-4-20-10-24-10zM762 458l-250 124-250-124 250-122zM512 720l-410-190v-374l410-204 410 214v364zM870 208c0-10-14-22-26-26l-316-158c-6 0-10-6-16-6s-10 0-10 6l-322 152c-12 6-26 10-26 22v250c0 6 10 6 10 10 0 10 10 20 20 26l312 154c10 4 22 4 26 0l312-154c10-6 26-16 26-26 0-4 10-4 10-10zM204 412v-144l256-148v148zM820 412l-256-144v-148l256 154z" />
<glyph unicode="&#x22;" glyph-name="archive-2" d="M64 960v-1024h896v1024zM896 0h-768v896h320v-64h-64v-64h64v-64h-64v-64h64v-64h-64v-64h64v-64h192v64h-64v64h64v64h-64v64h64v64h-64v64h64v64h256z" />
<glyph unicode="&#x23;" glyph-name="more" d="M512-64c-284 0-512 228-512 512s228 512 512 512c284 0 512-228 512-512s-228-512-512-512zM512 900c-246 0-452-206-452-452s206-452 452-452c246 0 452 206 452 452s-206 452-452 452zM512 298c-6 0-12 0-18 6l-228 198c-14 12-14 30 0 42 12 12 30 12 42 0l204-186 204 186c12 12 30 12 42 0 14-12 14-30 0-42l-222-204c-12 0-18 0-24 0z" />
<glyph unicode="&#x24;" glyph-name="gradle" d="M704 448c0-106-86-192-192-192s-192 86-192 192c0 106 86 192 192 192s192-86 192-192zM692 768l140-256h128c-38 218-224 384-448 384-64 0-122-12-180-38l64-90zM692 128h-352l-180 320 134 244-70 102c-96-84-160-206-160-346 0-250 198-448 448-448 224 0 410 166 442 384h-128z" />
<glyph unicode="&#x25;" glyph-name="docker-tags" d="M996 202h-812c-4 0-12 4-16 8l-128 136c-56 56-56 148 0 200l128 140c4 4 8 8 16 8h812c12 0 20-8 20-20v-452c0-12-12-20-20-20zM192 244h782v408h-782l-122-130c-20-20-30-46-30-74s14-54 30-74zM226 346c-58 0-104 44-104 102s46 102 104 102c56 0 102-44 102-102s-46-102-102-102zM226 510c-34 0-62-30-62-62s28-62 62-62c32 0 60 30 60 62s-28 62-60 62zM852 488h-410c-12 0-20 10-20 22s8 20 20 20h410c12 0 20-8 20-20s-12-22-20-22zM852 366h-410c-12 0-20 8-20 20s8 22 20 22h410c12 0 20-10 20-22s-12-20-20-20z" />
<glyph unicode="&#x26;" glyph-name="bower" d="M980 474c-20 6-32 12-52 18-90 26-186 40-276 52-12 0-32 6-44 6 6 32 20 38 44 38 0-6 8-12 8-18s6-6 12-6 26 0 38 0c64 6 102 38 128 102 6 18 14 38 14 58 6 44 24 82 50 114 0 0 6 6 6 14-70 24-198-26-248-136-14 0-26 8-32 8-8 0-14 6-14 12-32 102-114 166-218 160-114 0-210-44-288-128-76-90-108-192-108-308 6-102 38-198 96-288 26-38 58-70 96-96 38-24 76-18 108 14 8 6 14 12 20 26 0-8 0-8 6-14 6-26 20-44 26-70 12-26 44-38 64-26 6 6 12 0 12 0 20-6 46-12 64 0 20 14 32 14 52 20 26 6 52 18 58 44 0 0 0 6 6 6 12 8 20 14 26 26 6 20 6 32 0 46-14 32-32 56-46 82 0 0 0 6-6 6 20-6 32-12 52-12 26 0 50-6 64 20 6 0 6-8 6-8 44-24 96-18 128 20 6 0 6 0 12 0 26-6 52 0 78 12 12 8 26 14 26 32 0 8 0 14 0 20 50 6 76 32 76 76 6 40-6 64-44 78zM684 596c-6 12-12 24-12 32 0 6 0 6 6 6s20 0 20 0c0-6 0-14 0-20 0 0 6 0 6 0 6 14 6 14 26 14 12 0 26-8 32-14-20-12-46-18-78-18zM858 826c-32-32-32-78-46-122-6-26-12-52-24-70-20 12-32 32-52 44 12 26 20 46 32 64 12 20 26 38 44 58-44-26-70-64-96-102-12 6-18 12-32 18 20 46 116 116 174 110zM556 576c0 64 8 64 14 84 0 6 6 24 6 32 0 0 6 12 12 12 52-6 90-20 128-44 8-8 20-14 26-20-12 0-26 6-38 12-26 8-58 8-84-6-6 0-12-6-18-6s-14 0-14 0c0 0 8 0 8 0-8-12-20-12-20-6h-12c0 0-8 0-8 0 20-20 32-14 52-14 12 0 26 8 38 8 0 0-6-8-6-8-26-12-44-24-70-32 0 0 0 0-6 0 0 8-8 8-8 14s0-14 0 0c0 0 0-26 0-26zM396 756c52 0 90-40 90-90 0-46-38-90-90-90-50 0-88 44-88 96 0 44 38 84 88 84zM640 448c12 0 20-6 32-6s26-6 32-6c32-8 58-14 90-20 12 0 12-6 6-20-12-18-32-24-58-18 0 0-6 0-6 0 0-32-26-52-64-52-12 0-26 6-38 6-6-18-26-24-38-24-20 0-40 0-58 12 6-20 12-32 18-44 0-8 0-14 0-14-12-76-70-134-146-140-84-6-154 18-224 70-46 32-84 76-110 134 0 0 0 6-6 6 20-6 38-12 58-12 32-6 64-6 96 12 26 0 32 0 44 0 110-24 186 14 250 96 6 8 14 14 14 20 12 20 24 38 44 58 0 0 6 6 12 6 40-6 78-6 110-12 64-14 122-26 186-32 0 0 6 0 6-8-84-12-166-24-250-12zM396 614c32 0 52 20 52 52s-26 58-52 58c-32 0-56-26-56-52 0-32 24-58 56-58zM372 704c6 6 12 6 24 6 8 0 20-6 26-6 14-6 14-20 0-26-12-6-38-6-50 0-8 6-8 20 0 26z" />
<glyph unicode="&#x27;" glyph-name="import" d="M994-64h-964c-18 0-30 12-30 30v964c0 18 12 30 30 30h150c18 0 30-12 30-30s-12-30-30-30h-120v-904h904v120c0 18 12 30 30 30s30-12 30-30v-150c0-18-12-30-30-30zM740 238h-408c-18 0-30 12-30 30v426c0 14 6 26 18 32s24 0 30-6l408-428c6-6 14-24 6-30 0-18-12-24-24-24zM362 298h306l-306 324zM566 472c-6 0-18 0-24 6-12 12-12 30 0 42l428 428c12 12 30 12 42 0s12-30 0-42l-422-422c-6-6-12-12-24-12z" />
<glyph unicode="&#x28;" glyph-name="filter" d="M586-64c-8 0-16 0-22 8l-148 88c-6 6-14 22-14 28v336l-394 506c-8 6-8 22 0 36 0 14 14 22 28 22h952c14 0 28-8 28-22 8-14 8-30 0-36l-394-506v-424c0-14-8-22-22-28 0-8-8-8-14-8zM476 82l72-44v374c0 6 0 14 8 22l358 452h-804l358-452c8-8 8-16 8-22z" />
<glyph unicode="&#x2a;" glyph-name="set-me-up" d="M264-26c-10 0-22 6-26 10l-194 194c-6 6-12 16-12 28 0 10 6 22 12 26l268 270v296c0 16 12 32 32 38l314 80c16 6 26 0 38-10l32-32c10-12 16-32 4-48l-102-190 38-38 216 82c10 10 32 10 42-6l34-32c10-10 16-22 10-38l-86-312c-6-16-22-32-38-32h-280l-274-270c-6-10-18-16-28-16zM124 210l140-140 258 260c6 4 16 10 28 10h264l70 254-210-82c-16-4-32 0-44 12l-74 74c-18 18-18 38-12 54l98 178-248-64v-270c0-10-6-22-12-26z" />
<glyph unicode="&#x2b;" glyph-name="lock" d="M748.8 499.2h-64v70.4c0 96-76.8 172.8-172.8 172.8s-172.8-76.8-172.8-172.8v-76.8h-64v76.8c0 134.4 102.4 243.2 236.8 243.2s236.8-108.8 236.8-236.8v-76.8zM748.8 0h-473.6c-76.8 0-147.2 64-147.2 147.2v236.8c0 76.8 64 147.2 147.2 147.2h467.2c76.8 0 147.2-64 147.2-147.2v-236.8c0-83.2-64-147.2-140.8-147.2zM275.2 467.2c-44.8 0-76.8-44.8-76.8-83.2v-236.8c0-44.8 38.4-83.2 83.2-83.2h467.2c44.8 0 83.2 38.4 83.2 83.2v236.8c0 44.8-38.4 83.2-83.2 83.2h-473.6zM544 358.4h-64c-19.2 0-32-12.8-32-32s12.8-32 32-32v-89.6c0-19.2 12.8-38.4 32-38.4s32 19.2 32 38.4v89.6c19.2 0 32 12.8 32 32s-12.8 32-32 32z" />
<glyph unicode="&#x2c;" glyph-name="notif-success" d="M512-64c-284 0-512 228-512 512s228 512 512 512c284 0 512-228 512-512s-228-512-512-512zM512 882c-238 0-434-196-434-434s196-434 434-434c238 0 434 196 434 434s-196 434-434 434zM442 212c-12 0-24 4-32 12l-126 158c-14 16-10 42 4 56 16 12 42 10 56-6l94-116 236 334c14 18 38 22 56 10s20-36 10-54l-268-378c-4-12-18-16-30-16z" />
<glyph unicode="&#x2d;" glyph-name="notif-error" d="M512 960c-284 0-512-228-512-512s228-512 512-512c284 0 512 228 512 512s-228 512-512 512zM512 14c-238 0-434 196-434 434s196 434 434 434c238 0 434-196 434-434s-196-434-434-434zM724 658c-16 14-42 14-58 0l-154-154-154 154c-16 14-42 14-58 0-16-16-16-40 0-56l154-154-154-154c-16-16-16-40 0-56 8-8 18-10 28-10s22 2 30 10l154 154 154-154c8-8 20-10 30-10s20 2 28 10c16 16 16 40 0 56l-154 154 154 154c14 14 14 40 0 56z" />
<glyph unicode="&#x2e;" glyph-name="docker-command" d="M34-2c-6 0-20 0-28 6-12 14-12 34 0 48l396 396-396 402c-6 14-6 34 0 48 14 14 34 14 48 0l424-422c14-14 14-34 0-48l-416-416c-8-8-22-14-28-14zM956-30h-614c-22 0-34 14-34 34s12 34 34 34h614c20 0 34-14 34-34s-14-34-34-34z" />
<glyph unicode="&#x2f;" glyph-name="copy-to-clipboard" d="M512 952c-282 0-512-230-512-512s230-512 512-512c282 0 512 230 512 512s-230 512-512 512zM512-32c-262 0-472 214-472 472s210 470 472 470c262 0 472-208 472-470s-214-472-472-472zM758 140h-410c-12 0-20 8-20 22v60h-62c-12 0-20 8-20 22v330c0 6 0 10 4 14l126 160c4 4 10 8 18 8h240c14 0 22-8 22-22v-60h102c12 0 20-8 20-22v-490c0-14-8-22-20-22zM368 182h370v450h-82v-388c0-14-8-22-22-22h-266zM286 264h328v450h-204v-144c0-12-8-20-20-20h-104zM304 592h64v82z" />
<glyph unicode="&#x30;" glyph-name="megaphone-on" d="M834 578c-4 0-10 2-12 8s0 14 8 16l162 66c8 2 14 0 18-8 2-8 0-14-8-18l-162-64c-4 0-6 0-6 0zM986 264c-2 0-4 0-6 2l-154 98c-4 4-6 12-4 16 2 6 12 8 18 6l154-98c6-4 8-12 6-18-4-4-8-6-14-6zM1006 466h-150c-6 0-12 4-12 12s6 12 12 12h150c8 0 14-4 14-12s-6-12-14-12zM438 224h-226c-8 0-12 4-12 12v112h24v-100h200v50h26v-62c0-8-6-12-12-12zM12 324c-2 0-4 0-8 2-2 2-4 4-4 10v224c0 6 2 8 4 10 4 2 8 2 10 2l100-24c6-2 10-8 10-12v-176c0-4-4-10-10-12l-100-24c0 0-2 0-2 0zM24 546v-192l76 20v152zM762 224c0 0-2 0 0 0l-652 124c-6 0-10 8-10 12v176c0 4 4 10 10 12l650 150c2 0 6 0 10-2 2-4 4-6 4-10v-450c0-2-2-8-4-10-4-2-6-2-8-2zM124 370l626-120v420l-626-144z" />
<glyph unicode="&#x31;" glyph-name="show-in-tree" d="M814-34c18 0 30 12 30 30s-12 30-30 30h-302v182h302c18 0 30 12 30 30s-12 30-30 30h-302v180h302c18 0 30 12 30 30s-12 30-30 30h-604v422c0 18-12 30-30 30s-30-12-30-30v-452c0-18 12-30 30-30h272v-482z" />
<glyph unicode="&#x32;" glyph-name="show-in-ci-server, replace" horiz-adv-x="1072" d="M1050.896 522.796c-10.84 10.84-26.016 10.84-36.856 0l-67.208-67.208c-6.504 223.3-188.616 398.908-416.252 398.908-123.576 6.504-238.476-49.864-316.524-149.592-10.84-10.84-10.84-26.016 0-39.024 10.84-4.336 32.52-4.336 39.024 6.504 71.544 82.384 171.272 132.248 277.5 132.248 192.952 0 355.548-153.928 359.884-349.044l-71.544 60.704c-10.84 10.84-28.184 10.84-39.024 0s-10.84-28.184 0-39.024l117.072-104.064c10.84-6.504 15.176-10.84 21.68-10.84s17.344 0 21.68 4.336l110.568 110.568c13.008 17.344 13.008 34.688 0 45.528zM812.416 210.608c-65.040-82.384-171.272-125.744-277.5-125.744-93.224 0-182.112 32.52-253.652 104.064-67.208 67.208-106.232 149.592-112.736 244.98l73.712-60.704c15.176-10.84 32.52-6.504 43.36 4.336s6.504 28.184-4.336 39.024l-117.072 99.728c-10.84 10.84-28.184 6.504-39.024 0l-106.232-121.408c-10.84-10.84-10.84-28.184 0-39.024 6.504-6.504 10.84-6.504 17.344-6.504s17.344 6.504 21.68 13.008l60.704 65.040c6.504-104.064 49.864-199.456 123.576-270.996 78.048-78.048 182.112-121.408 292.676-121.408 123.576 0 238.476 54.2 323.028 149.592 10.84 10.84 4.336 26.016-6.504 39.024-10.84 4.336-32.52 4.336-39.024-13.008z" />
<glyph unicode="&#x33;" glyph-name="show-build-json" d="M1012-26l-224 224c82 84 134 192 134 320 0 244-198 448-448 448s-442-204-442-454c0-250 198-448 448-448 96 0 186 32 262 84l230-232zM96 512c0 212 172 384 384 384s384-172 384-384c0-212-172-384-384-384s-384 180-384 384zM410 698h64v-276c0-38 0-76-14-96-6-6-50-32-114-32v-64c64 0 134 20 166 58 26 38 26 84 26 134v276h64v64h-192z" />
<glyph unicode="&#x34;" glyph-name="search-specific" d="M512 952c-282 0-512-230-512-512s230-512 512-512c282 0 512 230 512 512s-230 512-512 512zM512-32c-262 0-472 214-472 472s210 470 472 470c262 0 472-208 472-470s-214-472-472-472zM684 494c0 114-90 204-204 204-116 0-206-90-206-204 0-116 90-206 206-206 40 0 82 12 114 38l144-144 28 28-140 140c38 36 58 86 58 144zM316 494c0 90 74 162 164 162s164-72 164-162c0-92-74-164-164-164s-164 72-164 164z" />
<glyph unicode="&#x35;" glyph-name="menu-search" d="M727.771 817.371c-29.257 58.514-76.8 98.743-128 102.4-3.657 0-7.315 0-7.315 0h-18.286c-98.743-7.315-190.172-128-208.458-277.943-18.286-168.228 54.857-314.515 164.571-329.143s215.771 113.372 234.057 277.943c7.315 87.771-3.657 164.571-36.572 226.742zM424.229 919.772c-128-54.857-175.543-212.114-164.571-343.772 10.971-124.343 65.829-215.771 146.286-241.371h14.629c-65.829 65.829-102.4 186.514-87.771 314.515 14.629 120.685 69.486 223.086 142.629 274.285l-51.2-3.657zM431.543 56.685c0-18.286 10.971-36.572 25.6-47.543l7.315-3.657v296.229c-10.971 7.315-21.943 14.629-32.914 21.943v-266.972zM497.371-5.486c0-14.629 14.629-21.943 25.6-18.286l47.543 18.286c14.629 3.657 25.6 18.286 25.6 36.572v259.657c-18.286-3.657-32.914-7.315-51.2-7.315-7.315 0-14.629 0-18.286 0-10.971 0-18.286 3.657-25.6 7.315v-296.229zM797.258 590.629c-14.629-135.314-80.457-245.028-168.228-288.914v-274.285c0-29.257-18.286-58.514-47.543-69.486l-47.543-18.286c-7.315-3.657-10.971-3.657-18.286-3.657-10.971 0-21.943 3.657-29.257 10.971v0l-47.543 32.914c-25.6 18.286-43.886 47.543-43.886 76.8v241.371c-91.428 29.257-157.257 131.658-171.886 274.285-10.971 146.286 40.228 321.828 190.172 380.344h7.315l149.942 7.315c7.315 0 10.971 0 18.286 0h3.657c3.657 0 7.315 0 10.971 0 62.171-7.315 120.685-51.2 153.6-120.685 36.572-73.143 51.2-160.915 40.228-248.686zM713.143 601.6c-7.315-58.514-29.257-113.372-62.171-149.942-29.257-36.572-69.486-54.857-106.057-54.857-3.657 0-10.971 0-14.629 0-10.971 0-14.629 10.971-14.629 18.286 0 10.971 10.971 18.286 18.286 14.629 32.914-3.657 62.171 10.971 91.428 43.886s47.543 80.457 54.857 131.658c10.971 106.057-32.914 197.485-98.743 204.8-10.971 0-14.629 10.971-14.629 18.286 0 10.971 10.971 18.286 18.286 14.629 84.115-10.971 138.971-117.028 128-241.371z" />
<glyph unicode="&#x36;" glyph-name="run" d="M512 896c250 0 448-198 448-448s-198-448-448-448c-250 0-448 198-448 448s198 448 448 448zM512 960c-282 0-512-230-512-512s230-512 512-512c282 0 512 230 512 512s-230 512-512 512zM378 186c-6 0-14 0-20 6-12 6-18 20-18 26v460c0 14 6 20 18 26 14 6 20 6 32 0l404-230c12-6 18-20 18-26s-6-20-18-26l-404-230c-6-6-6-6-12-6zM410 628v-352l300 172z" />
<glyph unicode="&#x37;" glyph-name="zap" d="M362-64c-6 0-6 0-12 0-12 6-18 18-18 36l114 446h-236c-12 0-18 6-24 12-6 12-6 24-6 30l224 482c6 12 18 18 30 18h306c12 0 18-6 24-12 8-12 8-18 0-30l-138-260h188c12 0 24-6 24-18 6-12 6-24 0-30l-452-662c-6-6-12-12-24-12zM260 478h222c12 0 18-6 24-12s6-18 6-24l-78-320 324 476h-186c-12 0-18 6-24 12-6 12-6 24 0 30l138 260h-240z" />
<glyph unicode="&#x38;" glyph-name="refresh" d="M1024 544c-12 12-28 12-40 0l-74-68c-12 240-210 428-454 428-252 0-456-206-456-456s204-456 456-456c148 0 290 74 374 200 12 12 6 28-6 40-10 12-28 6-38-6-74-114-200-176-330-176-222 0-400 182-400 398s182 398 400 398c210 0 380-164 398-370l-68 68c-12 12-30 12-40 0-12-10-12-28 0-40l118-118c6-6 12-6 24-6 10 0 16 0 22 6l114 118c12 12 12 30 0 40z" />
<glyph unicode="&#x39;" glyph-name="view" d="M542 622c-96 0-174-78-174-174s78-174 174-174c96 0 174 78 174 174s-78 174-174 174zM542 334c-66 0-114 48-114 114s48 114 114 114c66 0 114-54 114-114s-48-114-114-114zM1030 460c-102 180-290 290-500 290s-404-104-524-284c-6 0-6-6-6-12v-6c0-6 0-12 6-18 120-174 314-284 524-284s398 110 500 284c6 12 6 24 0 30zM530 208c-186 0-362 90-470 240 108 150 284 240 464 240 186 0 350-90 440-246-84-144-248-234-434-234z" />
<glyph unicode="&#x3a;" glyph-name="arrow2" d="M136-64c-6 0-14 0-20 6-14 14-14 34 0 48l410 458-410 458c-14 14-14 34 0 48 14 12 34 12 48 0l430-478c14-14 14-34 0-48l-430-478c-6-8-20-14-28-14zM478-64c-6 0-14 0-20 6-14 14-14 34 0 48l408 458-408 458c-22 14-14 34 0 48 14 12 34 12 48 0l430-478c12-14 12-34 0-48l-430-478c-8-8-22-14-28-14z" />
<glyph unicode="&#x3c;" glyph-name="vagrant" d="M972 858l-96 44c-6 6-18 6-24 0l-224-114c-14-8-20-20-20-26v-64l-58-180-70 180v64c0 6-6 18-12 26l-232 134c0 0 0 0-6 0-6 6-18 0-26 0l-128-58c0 0-6-6-12-20l-12-64c0-6 0-12 0-18l306-710c0-8 6-14 14-14l172-90c6 0 12-6 12-6 8 0 14 0 14 6l32 20 108 70c6 6 6 6 14 14l262 704c6 6 6 12 6 12v58c0 12-6 26-20 32zM416 90l-300 690 6 40 82 38 340-832zM556 166l-268 654 128-78v-50c0-8 0-14 0-14l108-262c8-20 20-32 32-32 14 0 26 12 32 26l84 268c0 0 0 6 0 14v44l128 70zM928 774l-256-690-64-46-12 38 280 756 52-26z" />
<glyph unicode="&#x3d;" glyph-name="docker-created" d="M976 814h-220v122c0 14-10 24-24 24h-98c-14 0-24-10-24-24v-122h-196v122c0 14-10 24-24 24h-98c-14 0-24-10-24-24v-122h-220c-14 0-24-10-24-24v-830c0-14 10-24 24-24h928c14 0 24 10 24 24v830c0 14-10 24-24 24zM658 912h50v-98h-50zM316 912h50v-98h-50zM74 764h292v-48c0-14 10-24 24-24s24 10 24 24v48h294v-48c0-14 8-24 24-24 14 0 24 10 24 24v48h194v-146h-876zM950-16h-876v586h876zM170 522h98v-98h-98zM366 522h98v-98h-98zM560 522h98v-98h-98zM170 326h98v-98h-98zM366 326h98v-98h-98zM560 326h98v-98h-98zM170 132h98v-98h-98zM366 132h98v-98h-98zM560 132h98v-98h-98zM756 522h98v-98h-98zM756 326h98v-98h-98zM756 132h98v-98h-98z" />
<glyph unicode="&#x3e;" glyph-name="yum" d="M0 596h90l38-142c0-6 6-18 6-26 0 14 0 20 6 26l46 142h82l-96-256c-12-32-24-58-44-72-20-12-44-18-70-18-14 0-26 0-32 6v64c6 0 18 0 26 0 6 0 12 0 18 6 6 0 14 6 14 14 0 6 6 12 12 24zM500 352l-14 32h-6c-6-12-12-20-26-26-12-6-26-12-44-12-26 0-46 6-64 26-14 12-26 38-26 64v160h84v-136c0-12 0-24 6-38 6-12 12-12 18-12 14 0 26 6 32 18 8 14 8 32 8 58v110h82v-244zM940 352v134c0 20 0 32-6 38-6 8-12 14-18 14-14 0-26-6-26-20-6-12-6-26-6-50v-116h-84v134c0 20 0 32-6 38-6 8-14 14-20 14-12 0-26-6-32-20-6-12-6-32-6-58v-108h-96v244h64l12-32h8c6 12 12 18 24 24 14 8 26 8 46 8 38 0 58-14 76-32h6c8 12 20 18 26 24 14 8 26 8 38 8 32 0 52-8 64-20 14-12 20-32 20-64v-160z" />
<glyph unicode="&#x3f;" glyph-name="sbt" d="M268 358c0-38-12-64-38-90-26-18-64-32-108-32-46 0-84 8-116 26v84c26-14 52-20 70-26 20-6 40-6 52-6 20 0 32 6 44 12 14 6 14 20 14 32 0 6 0 14-6 20-8 0-14 6-26 12-6 6-26 20-52 32-26 6-44 20-58 32-12 14-18 26-24 38-8 14-14 32-14 52 0 38 14 64 38 84 20 18 58 32 104 32 18 0 44 0 64-8 18-6 38-12 64-18l-40-70c-18 6-38 12-50 18-20 0-32 6-46 6-18 0-24-6-38-12-12-6-12-20-12-32 0-6 0-12 6-20 0-6 6-12 20-18 6-6 24-14 56-32 40-20 64-38 78-58 12-12 18-32 18-58zM358 652h128c58 0 102-6 128-24 26-20 38-46 38-78 0-26-6-44-18-58-6-18-26-32-46-32 26-6 46-18 58-32 14-12 20-38 20-64 0-38-14-64-38-88-26-20-64-32-110-32h-160zM448 492h52c24 0 38 8 50 14 6 6 14 12 14 32 0 12-8 26-20 32-6 6-26 12-52 12h-44zM448 422v-108h58c26 0 44 6 50 12 8 6 20 26 20 46 0 32-26 50-70 50zM916 244h-90v338h-110v70h308v-70h-108z" />
<glyph unicode="&#x40;" glyph-name="blackduck" d="M934 762c-58 76-122 122-166 146-26 14-44 20-58 26-12 6-18 6-18 6s6-6 18-12c14-6 26-26 46-38 38-38 82-90 120-166 14-40 20-84 32-128 8-46 8-96 0-142-6-50-18-96-44-146-12-26-20-46-38-64-6-14-14-20-20-26s-12-14-12-14c-6-6-6-6-14-12-38-32-76-58-120-70-46-14-90-14-142-6-44 12-96 24-128 50s-64 58-82 90c-46 70-64 140-72 192-12 44-18 76-18 76s-6-32-14-82c-6-52-6-134 32-224 20-46 46-96 90-134 46-40 96-64 160-84 58-20 134-26 198-6 72 18 128 50 180 96 6 6 12 12 20 18 6 8 12 14 18 20 14 12 26 32 32 44 20 32 32 58 46 90 32 58 38 122 44 180 6 128-32 242-90 320zM276 58c-40 32-84 90-122 160-32 76-52 166-38 262 6 52 24 96 44 140 12 26 26 46 38 64 14 20 26 40 46 52 38 32 76 58 120 64 46 12 90 12 136 0 44-6 96-26 128-52 32-18 64-50 82-82 46-64 64-134 78-186 12-52 12-76 12-76s6 24 12 82c0 52 8 128-32 218-18 44-50 90-96 128-44 38-96 64-160 84-56 18-128 24-198 6-64-14-128-46-178-90-14-12-40-38-58-70-20-26-38-58-52-90-18-58-32-122-38-180-6-120 32-236 90-312 58-78 122-122 172-142 26-12 46-18 58-26 12-6 20-6 20-6s-8 6-20 14c-12 6-26 18-44 38z" />
<glyph unicode="&#x41;" glyph-name="arrow" d="M308-64c-8 0-14 0-22 6-12 14-12 34 0 48l410 458-410 458c-12 14-12 34 0 48 14 12 34 12 48 0l430-478c14-14 14-34 0-48l-430-478c-6-8-20-14-26-14z" />
<glyph unicode="&#x42;" glyph-name="c-2" d="M896 448v64h-108l18 122-64 6-18-128h-46l20 122-64 6-20-128h-102v-64h90l-6-64h-84v-64h76l-18-122 64-6 18 134h46l-20-122 64-6 20 134h134v52h-128l6 64zM704 384h-44l6 64h44zM422 70c-192 0-346 154-346 346s154 346 346 346c70 0 134-20 192-58l52 52c-70 50-154 76-244 76-230 0-422-186-422-416s192-416 422-416c90 0 174 32 244 84l-52 50c-58-38-122-64-192-64z" />
<glyph unicode="&#x43;" glyph-name="artifactory-edit" d="M994 924c-18 18-54 30-84 24s-60-18-84-42l-68-66-396-398c0 0-6-6-6-12l-84-192c-6-12 0-24 6-36 6-6 12-6 24-6 6 0 6 0 12 0l192 84c6 0 6 6 12 6l398 396 72 74c42 54 48 126 6 168zM392 364l48-48-84-36zM488 352l-66 66 362 356 66-66zM940 798l-48-48-66 66 48 48c12 12 30 24 48 24 6 0 24 0 36-12s6-48-18-78zM934 478c-18 0-30-12-30-30v-452h-844v904h542c18 0 30 12 30 30s-18 30-30 30h-572c-18 0-30-12-30-30v-964c0-18 12-30 30-30h904c18 0 30 12 30 30v482c0 18-12 30-30 30z" />
<glyph unicode="&#x44;" glyph-name="unwatch" d="M278 26c-134 0-242 108-242 242 0 132 108 240 242 240 132 0 240-108 240-240 0-134-102-242-240-242zM278 448c-98 0-182-78-182-180 0-104 78-182 182-182 102 0 180 78 180 182 0 102-78 180-180 180zM722 26c-132 0-240 108-240 242 0 132 108 240 240 240 134 0 242-108 242-240 0-134-108-242-242-242zM722 448c-96 0-180-78-180-180 0-104 78-182 180-182 104 0 182 78 182 182 0 102-84 180-182 180zM482 870h60v-602h-60zM102 298l-54 30 278 590c6 12 18 12 30 12h324c12 0 24 0 30-6l242-578-54-30-236 554h-288zM78-4c-6 0-18 0-24 6-12 12-12 30 0 42l874 874c12 12 30 12 42 0s12-30 0-42l-874-874c-6-6-12-6-18-6z" />
<glyph unicode="&#x45;" glyph-name="jar" d="M884 588l-180 104v12l58 58c6 6 6 12 6 26v140c0 20-12 32-32 32h-448c-20 0-32-12-32-32v-140c0-14 0-20 6-26l58-58v-6l-180-110c-6-6-12-12-12-24v-410c0-6 0-14 6-14l64-120c0-14 14-20 26-20h576c12 0 26 6 26 20l64 120c0 8 6 14 6 14v410c0 12-6 18-12 24zM320 896h384v-96l-26-32h-332l-26 32zM780 64h-536l-32 64h600zM832 192h-640v352l180 102c6 6 12 20 12 32v26h256v-26c0-12 6-18 12-26l180-108z" />
<glyph unicode="&#x46;" glyph-name="untitled50" d="M214-22h596v-42h-596zM512 106c-224 0-406 192-406 428 0 234 182 426 406 426s406-192 406-426c0-236-182-428-406-428zM512 918c-200 0-362-172-362-384s162-384 362-384c200 0 362 172 362 384s-162 384-362 384z" />
<glyph unicode="&#x47;" glyph-name="download" d="M984-64h-944c-24 0-40 16-40 40v196c0 24 16 40 40 40s38-16 38-40v-158h868v158c0 24 14 40 38 40s40-16 40-40v-196c0-24-16-40-40-40zM898 432c-16 16-40 24-56 8l-290-188v630c0 22-16 38-40 38s-40-16-40-38v-638l-290 196c-24 16-48 8-56-8-16-16-8-40 8-54l354-238c8 0 16-8 16-8 8 0 16 0 16 8l354 238c32 14 32 38 24 54z" />
<glyph unicode="&#x48;" glyph-name="rpm" d="M102 192v-128h-70v332h96c44 0 76-6 102-24 26-14 32-40 32-78 0-18-6-38-18-50-14-14-26-26-46-40 52-76 84-120 96-146h-70l-76 128h-46zM102 250h26c20 0 38 6 52 12 6 6 12 20 12 32 0 14-6 26-20 32-6 6-24 14-44 14h-26zM570 294c0-38-14-64-32-82-20-20-52-26-96-26h-32v-122h-70v332h108c38 0 70-6 90-24 26-20 32-46 32-78zM410 244h26c18 0 38 6 50 12 14 6 20 20 20 38 0 20-6 26-14 38-12 0-32 8-50 8h-32zM774 64l-76 262c0-50 6-90 6-108v-154h-64v332h96l76-256 84 256h96v-332h-64v160c0 6 0 12 0 26 0 12 0 38 0 76l-90-262zM108 448h-64c0 256 212 460 474 460 166 0 326-96 410-242l-58-26c-6 0-6 0-12 6-78 116-206 198-340 198-224 0-410-204-410-396zM512 448v12l372 250 38-44z" />
<glyph unicode="&#x49;" glyph-name="gems" d="M1012 692l-288 198c0 6-8 6-14 6h-396c-6 0-14 0-14-6l-288-198c-6-8-12-14-12-20s0-20 6-26l480-634c6-6 14-12 26-12s20 6 26 12l480 634c6 6 6 14 6 26 0 6-6 12-12 20zM384 704l-32 128h320l-32-128zM620 640l-108-428-108 428zM730 806l154-102h-180zM294 806l26-102h-180zM332 640l128-486-370 486zM564 154l128 486h242z" />
<glyph unicode="&#x4a;" glyph-name="scala" d="M896 896l-768-166v-154h518l-518-128v-192h518l-518-90v-166l768 166v154h-518l518 128v192h-518l518 90z" />
<glyph unicode="&#x4b;" glyph-name="general" d="M960-32c0-20-12-32-32-32h-832c-12 0-32 12-32 32v666c0 6 0 12 6 18l250 296c6 6 12 12 26 12h582c20 0 32-12 32-32zM896 896h-486v-262c0-20-14-32-32-32h-250v-602h768zM166 666h180v210z" />
<glyph unicode="&#x4c;" glyph-name="delete-recursive" d="M1018 606c-8 6-14 12-28 12h-170v8c0 54-42 130-104 130h-122l-54 60c-8 0-22 8-28 8h-204c-8 0-22-8-28-8l-54-60h-124c-62 0-102-56-102-110v-574h786c12 0 26 8 34 22l204 476c0 14 0 22-6 36zM68 646c0 20 20 40 34 40h136c8 0 22 8 28 8l54 62h178l62-62c0 0 14-8 20-8h136c14 0 34-34 34-60v-8h-512c-12 0-26-6-34-20l-136-314zM764 140h-676l178 410h682zM656 442c-14 12-34 12-48 0l-62-62-62 62c-12 12-34 12-48 0-12-14-12-34 0-48l62-62-62-62c-12-14-12-34 0-48 8-6 14-12 22-12 6 0 20 0 26 6l62 68 62-62c6-6 14-12 26-12 14 0 22 0 28 6 14 14 14 34 0 48l-68 68 62 62c14 14 14 34 0 48z" />
<glyph unicode="&#x4d;" glyph-name="delete-content" d="M796-64h-682c-18 0-28 12-28 28v706c0 6 0 12 6 16l250 262c6 6 10 12 22 12h432c18 0 28-12 28-28v-428c0-16-10-28-28-28-16 0-28 12-28 28v400h-342v-256c0-18-10-30-28-30h-256v-626h626v114c0 18 12 30 28 30 18 0 28-12 28-30v-142c0-16-10-28-28-28zM160 676h210v222zM910 164c-6 0-16 0-22 6l-92 90-90-90c-12-12-30-12-40 0-12 10-12 28 0 40l90 90-90 92c-12 10-12 28 0 38 10 12 28 12 40 0l90-90 92 90c10 12 28 12 40 0 10-10 10-28 0-38l-92-92 92-90c10-12 10-30 0-40-6-6-12-6-18-6z" />
<glyph unicode="&#x4e;" glyph-name="c-1" d="M768 448h-64v64h-64v-64h-64v-64h64v-64h64v64h64zM1024 448h-64v64h-64v-64h-64v-64h64v-64h64v64h64zM614 134c-58-38-122-64-192-64-192 0-346 154-346 346s154 346 346 346c70 0 134-20 192-58l52 52c-70 50-154 76-244 76-230 0-422-186-422-416s192-416 422-416c90 0 174 32 244 84z" />
<glyph unicode="&#x4f;" glyph-name="delete-versions" d="M934 840h-150v90c0 18-12 30-32 30h-450c-12 0-18-6-24-12l-212-222c0 0-6-6-6-6v-634c0-18 12-30 30-30h90v-90c0-18 12-30 30-30h724c18 0 30 12 30 30v844c0 18-12 30-30 30zM302 888v-168h-158zM120 116v542h212c18 0 30 12 30 30v212h360v-784zM904-4h-664v60h512c20 0 32 12 32 30v694h120zM240 232c6-6 12-6 26-6 12 0 18 0 24 6l132 132 132-132c6-6 12-6 24-6s18 0 24 6c12 12 12 30 0 42l-144 132 132 132c12 12 12 30 0 42s-30 12-42 0l-132-132-132 132c-12 12-32 12-44 0s-12-30 0-42l134-132-134-132c-12-12-12-30 0-42z" />
<glyph unicode="&#x50;" glyph-name="c" d="M614 134c-58-38-122-64-192-64-192 0-346 154-346 346s154 346 346 346c70 0 134-20 192-58l52 52c-70 50-154 76-244 76-230 0-422-186-422-416s192-416 422-416c90 0 174 32 244 84z" />
<glyph unicode="&#x51;" glyph-name="watch" d="M278 26c-134 0-242 108-242 242 0 132 108 240 242 240 132 0 240-108 240-240 0-134-108-242-240-242zM278 448c-98 0-182-78-182-180 0-104 78-182 182-182 102 0 180 78 180 182 0 102-78 180-180 180zM722 26c-132 0-240 108-240 242 0 132 108 240 240 240 134 0 242-108 242-240 0-134-108-242-242-242zM722 448c-96 0-180-78-180-180 0-104 78-182 180-182 104 0 182 78 182 182 0 102-84 180-182 180zM482 870h60v-602h-60zM102 298l-54 30 278 590c6 12 18 12 30 12h324c12 0 24 0 30-6l242-578-54-30-242 554h-282z" />
<glyph unicode="&#x52;" glyph-name="local-repo" d="M512 390c-6 0-12 0-12 0l-480 224c-14 6-26 20-26 32 0 14 12 26 26 32l480 224c6 6 18 6 32 0l480-218c12-6 18-18 18-32 0-12-6-24-18-32l-488-224c-6 0-12-6-12-6zM116 646l396-178 396 184-396 180zM512-12c-6 0-12 0-12 6l-480 250c-14 0-20 12-20 24v378h64v-358l448-236 448 248v352h64v-364c0-12-6-20-20-26l-480-268c-6-6-12-6-12-6zM480 428h64v-428h-64z" />
<glyph unicode="&#x53;" glyph-name="megaphone" d="M438 224h-226c-8 0-12 4-12 12v112h24v-100h200v50h26v-62c0-8-6-12-12-12zM12 324c-2 0-4 0-8 2-2 2-4 4-4 10v224c0 6 2 8 4 10 4 2 8 2 10 2l100-24c6-2 10-8 10-12v-176c0-4-4-10-10-12l-100-24c0 0-2 0-2 0zM24 546v-192l76 20v152zM762 224c0 0-2 0 0 0l-652 124c-6 0-10 8-10 12v176c0 4 4 10 10 12l650 150c2 0 6 0 10-2 2-4 4-6 4-10v-450c0-2-2-8-4-10-4-2-6-2-8-2zM124 370l626-120v420l-626-144z" />
<glyph unicode="&#x54;" glyph-name="move" d="M854-64h-684c-16 0-28 12-28 28v712c0 6 6 16 6 16l250 256c6 6 12 12 22 12h434c16 0 28-12 28-28v-428c0-16-12-28-28-28-18 0-30 12-30 28v400h-340v-256c0-18-12-30-28-30h-256v-626h624v114c0 18 12 30 30 30 16 0 28-12 28-30v-142c0-16-12-28-28-28zM210 676h216v222zM734 140c-6 0-12 0-18 6-10 12-10 28-4 40l74 86h-302c-18 0-28 12-28 28 0 18 10 34 28 34h306l-78 102c-12 12-6 30 4 40 12 12 30 6 40-6l114-148c6-10 6-22 0-34l-114-136c-6-6-16-12-22-12z" />
<glyph unicode="&#x55;" glyph-name="simple-browser" d="M994 870h-722c-20 0-32-12-32-30v-152h-210c-18 0-30-12-30-30v-602c0-18 12-30 30-30h722c20 0 32 12 32 30v212h210c18 0 30 12 30 30v542c0 18-12 30-30 30zM722 86h-662v362h662zM722 508h-662v120h662zM964 328h-180v300h180zM964 688h-662v122h662z" />
<glyph unicode="&#x56;" glyph-name="datagrid-v" d="M512 960c-282 0-512-230-512-512s230-512 512-512c282 0 512 230 512 512s-230 512-512 512zM768 640l-300-428c-8-8-14-20-26-20-6 0-20 12-26 20l-148 178c-6 14-6 32 8 46 12 12 32 12 44-8l122-146 274 390c14 12 32 20 46 6 18 0 18-18 6-38z" />
<glyph unicode="&#x57;" glyph-name="re-index" d="M1018 520c-10 10-24 10-34 0l-62-62c-6 206-174 368-384 368-114 6-220-46-292-138-10-10-10-24 0-36 10-4 30-4 36 6 66 76 158 122 256 122 178 0 328-142 332-322l-66 56c-10 10-26 10-36 0s-10-26 0-36l108-96c10-6 14-10 20-10s16 0 20 4l102 102c12 16 12 32 0 42zM798 232c-60-76-158-116-256-116-86 0-168 30-234 96-62 62-98 138-104 226l68-56c14-10 30-6 40 4s6 26-4 36l-108 92c-10 10-26 6-36 0l-98-112c-10-10-10-26 0-36 6-6 10-6 16-6s16 6 20 12l56 60c6-96 46-184 114-250 72-72 168-112 270-112 114 0 220 50 298 138 10 10 4 24-6 36-10 4-30 4-36-12zM518 592c0 14 10 24 24 24 16 0 26-10 26-24 0-16-10-26-26-26-14 0-24 10-24 26zM538 244c-16 0-26 10-26 24v206c0 14 10 26 26 26 14 0 26-12 26-26v-206c0-14-12-24-26-24z" />
<glyph unicode="&#x58;" glyph-name="virtual-repo" d="M512 396c-6 0-12 0-12 0l-480 224c-14 0-26 14-26 26 0 14 6 26 18 32l480 224c8 6 20 6 32 0l480-218c14-6 20-18 20-32 0-12-6-24-20-32l-480-224c-6 0-12 0-12 0zM116 652l396-184 396 184-396 186zM512-12c-6 0-12 0-12 6l-480 250c-14 6-20 18-20 24v384h64v-364l448-236 448 248v352h64v-364c0-12-6-20-20-26l-480-268c-6-6-12-6-12-6zM512 186c-6 0-6 0-12 0l-288 134c-14 6-20 20-20 32v198c0 14 6 26 20 32l288 142c6 6 18 6 24 0l288-136c14-12 20-18 20-32v-192c0-12-6-24-20-24l-288-148c-6-6-12-6-12-6zM256 372l256-122 256 134v148l-256 120-256-128zM480 428h64v-402h-64z" />
<glyph unicode="&#x59;" glyph-name="v" d="M512 960c-284 0-512-228-512-512s228-512 512-512c284 0 512 228 512 512s-228 512-512 512zM512-4c-246 0-452 206-452 452s206 452 452 452c246 0 452-206 452-452s-206-452-452-452zM704 664l-258-366-114 138c-12 12-30 12-42 6-12-12-12-30-6-42l138-162c6-6 12 0 24 0s18-6 24 0l282 390c12 12 6 30-6 42s-30 6-42-6z" />
<glyph unicode="&#x5a;" glyph-name="unview" d="M972 482c-44 80-112 142-186 188l152 154c12 10 12 28 0 40-10 10-28 10-40 0l-164-166c-68 34-148 52-228 52-198 0-380-98-494-268l-12-6v-28l6-6c62-96 154-170 256-216l-160-160c-10-10-10-28 0-38 6-6 12-6 24-6 10 0 16 0 22 6l176 176c58-18 120-30 182-30 200 0 376 104 472 268l12 18zM62 466c102 142 268 226 438 226 68 0 132-10 188-34l-68-68c-28 22-68 40-108 40-92 0-164-74-164-164 0-40 16-80 38-110l-78-78c-98 34-182 96-246 188zM620 466c0-64-52-110-108-110-12 0-28 6-40 6l142 142c6-16 6-28 6-38zM404 466c0 62 52 108 108 108 28 0 52-12 68-24l-154-154c-16 18-22 40-22 70zM500 238c-44 0-90 6-136 16l62 64c30-12 58-24 86-24 92 0 164 74 164 166 0 28-10 56-22 80l86 90c74-40 130-96 176-170-86-142-240-222-416-222z" />
<glyph unicode="&#x5b;" glyph-name="pypi" d="M608 448c52 0 96 44 96 96 0 84 0 172 0 256 0 52-44 96-96 96-96 0-192 0-288 0-122 0-122-192 0-192 64 0 128 0 192 0 0-20 0-44 0-64-140 0-276 0-416 0-52 0-96-44-96-96 0-76 0-148 0-224 0-122 192-122 192 0 0 44 0 84 0 128 140 0 276 0 416 0zM768 576c0-64 0-128 0-192-140 0-276 0-416 0-52 0-96-44-96-96 0-84 0-172 0-256 0-52 44-96 96-96 96 0 192 0 288 0 122 0 122 192 0 192-64 0-128 0-192 0 0 20 0 44 0 64 140 0 276 0 416 0 52 0 96 44 96 96 0 96 0 192 0 288 0 122-192 122-192 0z" />
<glyph unicode="&#x5c;" glyph-name="drag" d="M626 652c0 22-16 38-38 38-20 0-36-16-36-38 0-20 16-36 36-36 22 0 38 16 38 36zM472 652c0 22-16 38-36 38-22 0-38-16-38-38 0-20 16-36 38-36 20 0 36 16 36 36zM626 516c0 20-16 38-38 38-20 0-36-18-36-38s16-36 36-36c22 0 38 16 38 36zM472 516c0 20-16 38-36 38-22 0-38-18-38-38s16-36 38-36c20 0 36 16 36 36zM626 380c0 20-16 36-38 36-20 0-36-16-36-36s16-38 36-38c22 0 38 18 38 38zM472 380c0 20-16 36-36 36-22 0-38-16-38-36s16-38 38-38c20 0 36 18 36 38zM626 244c0 20-16 36-38 36-20 0-36-16-36-36 0-22 16-38 36-38 22 0 38 16 38 38zM472 244c0 20-16 36-36 36-22 0-38-16-38-36 0-22 16-38 38-38 20 0 36 16 36 38zM626 110c0 20-16 36-38 36-20 0-36-16-36-36s16-38 36-38c22 0 38 18 38 38zM472 110c0 20-16 36-36 36-22 0-38-16-38-36s16-38 38-38c20 0 36 18 36 38zM626-28c0 22-16 38-38 38-20 0-36-16-36-38 0-20 16-36 36-36 22 0 38 16 38 36zM472-28c0 22-16 38-36 38-22 0-38-16-38-38 0-20 16-36 38-36 20 0 36 16 36 36zM626 786c0 20-16 38-38 38-20 0-36-18-36-38s16-36 36-36c22 0 38 16 38 36zM472 786c0 20-16 38-36 38-22 0-38-18-38-38s16-36 38-36c20 0 36 16 36 36zM626 924c0 20-16 36-38 36-20 0-36-16-36-36 0-22 16-38 36-38 22 0 38 16 38 38zM472 924c0 20-16 36-36 36-22 0-38-16-38-36 0-22 16-38 38-38 20 0 36 16 36 38z" />
<glyph unicode="&#x5d;" glyph-name="git-lfs" d="M780 724l-396-250v-154l-128 58v160l410 250-154 88-448-256v-344l448-256 448 256v344z" />
<glyph unicode="&#x5e;" glyph-name="p2" d="M468 550c0-64-20-108-58-140-46-32-96-52-174-52h-50v-204h-122v582h186c70 0 122-12 160-44s58-78 58-142zM186 460h38c38 0 64 8 84 26 18 14 24 38 24 64s-6 52-24 64c-8 14-32 20-64 20h-58zM960 154h-404v82l142 148c44 44 70 76 82 90 14 18 26 32 26 44 6 14 6 32 6 46 0 24-6 38-18 50-6 20-20 26-46 26-24 0-44-6-64-12-18-14-44-26-64-46l-64 78c26 24 52 44 64 50 20 14 40 20 64 26 20 6 46 6 78 6 38 0 70-6 96-18 26-14 50-32 64-58 12-26 26-52 26-84 0-26-8-50-14-76s-26-46-44-70c-20-26-58-58-102-104l-84-70v-6h256z" />
<glyph unicode="&#x5f;" glyph-name="npm" d="M166 288v134c0 20 0 32-6 38-6 8-12 14-20 14-12 0-24-6-32-20-6-6-12-32-12-58v-108h-84v250h64l14-32h6c6 12 20 18 32 26 12 6 26 6 44 6 26 0 52-6 64-26 14-20 20-32 20-64v-160zM474 282c-14 0-26 0-32 6-14 6-20 12-32 20h-6c0-20 6-26 6-32v-104h-90v366h70l14-32h6c12 26 38 38 64 38s50-12 64-32c12-20 26-52 26-96 0-38-8-70-26-96-14-26-38-38-64-38zM442 474c-14 0-20-6-26-14-6-6-6-24-6-38v-6c0-20 0-38 6-44 6-8 12-14 26-14 12 0 18 6 26 14 6 6 6 24 6 44s0 38-6 44c-8 8-14 14-26 14zM928 288v134c0 20 0 32-6 38-6 8-14 14-20 14-12 0-26-6-32-20-6-12-6-32-6-50v-116h-84v134c0 20 0 32-6 38-6 8-12 14-18 14-14 0-26-6-32-20-8-12-8-32-8-58v-108h-96v250h64l14-32h6c6 12 20 18 26 26 12 6 26 6 44 6 38 0 64-14 78-32h6c6 12 18 18 32 26 12 6 26 6 38 6 32 0 52-6 64-26s20-38 20-70v-160h-84z" />
<glyph unicode="&#x60;" glyph-name="notif-icon" d="M512-64c-284 0-512 228-512 512s228 512 512 512c284 0 512-228 512-512s-228-512-512-512zM512 882c-238 0-434-196-434-434s196-434 434-434c238 0 434 196 434 434s-196 434-434 434zM510 580c20 0 38-20 38-40v-316c0-20-18-38-38-38-22 0-40 18-40 38v316c0 20 16 40 40 40zM548 672c0-22-16-40-38-40s-40 18-40 40c0 20 18 38 40 38s38-18 38-38z" />
<glyph unicode="&#x63;" glyph-name="bintray" d="M112 16h794v-72h-794zM678 622v-72h106l-240-238v512l76-74 50 50-162 160-160-160 52-50 76 76v-514l-240 238h102v72h-226v-228h72v110l326-326 324 324v-108h72v228z" />
<glyph unicode="&#x64;" glyph-name="archive" d="M1024 608c0 6 0 6 0 0 0 6 0 12-6 12l-174 256c-6 14-12 20-24 20h-616c-12 0-18-6-24-12l-174-256c0 0 0-8 0-8s0-6 0-6v-640c-6-26 6-38 26-38h960c20 0 32 12 32 32zM134 704h756l44-64h-844zM224 832h582l46-64h-672zM960 0h-896v576h896zM320 384h384c20 0 32 12 32 32s-12 32-32 32h-384c-20 0-32-12-32-32s12-32 32-32z" />
<glyph unicode="&#x65;" glyph-name="cached-repo" d="M512 280c-6 0-10 0-10 0l-384 174c-10 4-20 14-20 24s10 22 20 26l384 180c4 4 16 4 26 0l384-174c10-6 14-16 14-26s-4-20-14-26l-384-178c-10 0-16 0-16 0zM194 478l318-142 318 148-318 144zM512-48c-6 0-10 0-10 4l-384 200c-10 6-16 10-16 20v308h52v-292l358-190 358 200v282h52v-292c0-10-6-16-16-20l-384-216c-4-4-10-4-10-4zM486 304h52v-342h-52zM752 792c-4 0-14 4-20 10-56 56-138 86-220 86-88 0-164-30-226-92-10-10-30-10-40 0s-10 30 0 42c72 70 168 106 266 106s190-40 262-106c10-12 10-32 0-42-6-4-16-4-22-4zM692 688c-6 0-12 0-16 6-124 92-216 92-328 0-16-10-30-10-40 4-12 12-6 32 4 42 138 112 256 112 400 0 10-10 16-26 4-42-10-4-14-10-24-10z" />
<glyph unicode="&#x66;" glyph-name="css" d="M960-32c0-20-12-32-32-32h-832c-20 0-32 12-32 32v666c0 6 0 12 6 18l250 296c6 6 12 12 26 12h582c20 0 32-12 32-32zM896 896h-486v-262c0-20-14-32-32-32h-250v-602h768zM166 666h180v210zM358 332c-18 0-38-6-50-24-14-14-20-40-20-64 0-26 6-52 20-64 12-14 32-20 50-20 14 0 20 0 26 0s20 6 26 6v-32c-20-6-38-12-64-12-32 0-58 12-78 32-18 18-24 50-24 90 0 24 6 44 12 64 6 18 20 32 38 38 20 6 38 12 58 12 26 0 44-6 64-12l-6-26c-14 0-20 6-26 6-12 6-20 6-26 6zM596 192c0-20-8-38-20-44-20-14-38-20-64-20s-44 6-64 12v40c12-8 20-8 32-14 12 0 26-6 32-6 12 0 26 0 32 6s12 14 12 26c0 6-6 12-12 20-6 6-20 12-38 18-20 6-38 20-46 32-6 14-12 26-12 38 0 20 6 40 20 46 12 12 32 18 56 18 20 0 46-6 64-12l-12-32c-20 6-38 12-52 12-12 0-18 0-24-6-8-6-8-12-8-18 0-8 0-14 8-14 0-6 6-6 12-12s20-6 32-14c20-6 32-12 38-18s14-14 20-20c-14-18-6-26-6-38zM768 192c0-20-6-38-20-44-12-14-32-20-64-20s-44 6-64 12v40c14-8 20-8 32-14 14 0 26-6 32-6 14 0 26 0 32 6 8 6 14 14 14 26 0 6-6 12-14 20-6 6-18 12-38 18-18 6-38 20-44 32-6 14-14 26-14 38 0 20 8 32 20 46 12 12 32 18 58 18 18 0 44-6 64-12l-6-32c-20 6-40 12-52 12s-20 0-26-6c-6-6-6-12-6-18 0-8 0-14 6-14 0-6 6-6 14-12 6-6 18-6 32-14 18-6 32-12 38-18s12-14 18-20c-12-18-12-26-12-38z" />
<glyph unicode="&#x67;" glyph-name="debian" d="M652-52c-288 0-518 238-518 520 0 230 192 422 422 422 192 0 346-154 346-346 0-154-128-282-282-282-128 0-230 102-230 230 0 110 84 192 192 192 20 0 32-12 32-32 0-18-18-24-38-24-70 0-128-58-128-128 0-96 76-168 166-168 122 0 218 96 218 218 0 154-128 282-282 282-198 0-358-160-358-358 0-250 204-454 454-454 20 0 32-14 32-32 0-20-6-40-26-40z" />
<glyph unicode="&#x68;" glyph-name="docker-id" d="M294 154c-4 0-14 0-18 4l-272 272c-4 10-4 26 0 36l272 272c8 8 22 8 32 0 12-10 12-22 4-32l-258-258 258-258c8-10 8-22 0-32-4-4-14-4-18-4zM730 154c-4 0-14 0-18 4-8 10-8 22 0 32l258 258-258 258c-8 10-8 22 0 32 10 8 22 8 32 0l272-272c8-10 8-22 0-32l-272-270c0-10-10-10-14-10zM406 136c-6 0-6 0-10 0-14 4-18 18-14 28l224 578c4 14 18 22 26 18 14-4 18-18 14-28l-224-578c0-14-8-18-16-18z" />
<glyph unicode="&#x69;" glyph-name="copy" d="M934 840h-150v90c0 18-12 30-32 30h-450c-12 0-18-6-24-12l-212-222c0 0-6-6-6-6v-634c0-18 12-30 30-30h90v-90c0-18 12-30 30-30h724c18 0 30 12 30 30v844c0 18-12 30-30 30zM302 888v-168h-158zM120 116v542h212c18 0 30 12 30 30v212h360v-784zM904-4h-664v60h512c20 0 32 12 32 30v694h120z" />
<glyph unicode="&#x6b;" glyph-name="groovy" d="M500-26c-264 0-480 218-480 480s216 480 480 480c262 0 480-218 480-480s-212-480-480-480zM500 870c-232 0-416-186-416-416s184-416 416-416c230 0 416 186 416 416s-186 416-416 416zM652 576c-32 26-82 44-128 44-102 0-166-76-166-178 0-78 46-160 166-160 40 0 72 6 110 38v84h-122v82h212v-204c-46-58-110-90-192-90-180 0-256 122-256 250 0 134 82 262 256 262 64 0 128-26 178-76z" />
<glyph unicode="&#x6c;" glyph-name="html" d="M960-32c0-20-12-32-32-32h-832c-20 0-32 12-32 32v666c0 6 0 12 6 18l250 296c6 6 12 12 26 12h582c20 0 32-12 32-32zM896 896h-486v-262c0-20-14-32-32-32h-250v-602h768zM166 666h180v210zM576 448v-128h-128v128h-64v-320h64v128h128v-128h64v320z" />
<glyph unicode="&#x6d;" glyph-name="java" d="M484 648c16 0 28 10 28 28v228c0 16-12 28-28 28-18 0-28-12-28-28v-228c0-18 10-28 28-28zM598 648c16 0 28 10 28 28v170c0 18-12 28-28 28-18 0-30-10-30-28v-170c0-18 12-28 30-28zM370 648c16 0 28 10 28 28v114c0 16-12 28-28 28-18 0-28-12-28-28v-114c0-18 10-28 28-28zM882 448h-102l16 80c0 6 0 16-6 22-4 6-16 12-22 12h-568c-6 0-18-6-24-12s-6-16-6-22l114-570c0-10 18-22 28-22h342c12 0 22 12 28 22l30 148h170c16 0 28 12 28 30v284c0 16-12 28-28 28zM632-8h-296l-102 512h500zM854 164h-132l46 228h86z" />
<glyph unicode="&#x6e;" glyph-name="json" d="M960-32c0-20-12-32-32-32h-832c-20 0-32 12-32 32v666c0 6 0 12 6 18l250 296c6 6 12 12 26 12h582c20 0 32-12 32-32zM896 896h-486v-262c0-20-14-32-32-32h-250v-602h768zM166 666h180v210zM186 70c-14 0-20 0-26 6v26c6 0 12 0 26 0 12 0 18 0 26 6 6 8 6 14 6 26v224h26v-230c0-20-8-32-14-44-6-14-26-14-44-14zM410 192c0-20-6-38-20-44-12-8-38-20-64-20s-44 6-64 12v26c6-6 20-6 32-6 14 0 20-6 32-6 20 0 32 6 38 12 14 0 20 6 20 20 0 6 0 12-6 18-6 8-6 14-14 14-6 6-18 6-32 12-18 6-38 20-44 26-6 12-12 26-12 38 0 20 6 32 18 46 6 12 26 18 46 18 24 0 44-6 64-12l-8-20c-18 6-38 14-56 14-14 0-26 0-32-8-8-6-14-12-14-24 0-8 0-14 6-20 0-6 8-12 14-12 6-14 18-14 32-20 26-6 38-20 50-26 8-12 14-26 14-38zM628 244c0-40-8-64-26-84-20-20-46-32-78-32s-56 12-76 32c-20 20-26 52-26 90s6 64 26 90c20 18 44 32 76 32s58-14 78-32c18-32 26-58 26-96zM448 244c0-32 6-58 20-72 12-12 32-24 56-24 26 0 46 6 58 24 14 20 20 40 20 72s-6 50-20 70c-12 12-32 26-58 26-24 0-44-8-56-26-14-20-20-38-20-70zM832 128h-32l-128 192c0-26 0-44 0-64v-128h-26v230h32l122-192c0 0 0 14 0 26s0 26 0 32v128h32z" />
<glyph unicode="&#x70;" glyph-name="group" d="M820 660c-44 168-198 300-388 300-220 0-396-176-396-394 0-132 66-250 168-322 44-176 198-308 388-308 220 0 396 176 396 394 0 140-66 256-168 330zM760 566c0-176-146-322-322-322-58 0-116 14-168 44 0 14-6 36-6 50 0 176 146 322 322 322 58 0 116-14 168-44 0-22 6-36 6-50zM110 566c0 174 146 320 322 320 124 0 234-72 284-174-36 14-80 22-124 22-212 0-388-168-394-382-60 52-88 126-88 214zM592 10c-124 0-234 72-284 174 44-14 86-22 130-22 212 0 388 168 396 382 52-52 80-126 80-214 0-174-146-320-322-320z" />
<glyph unicode="&#x71;" glyph-name="nuget" d="M660 84c-122 0-224 102-224 224 0 120 102 224 224 224 120 0 224-104 224-224 0-122-104-224-224-224zM660 468c-90 0-160-72-160-160 0-90 70-160 160-160 88 0 160 70 160 160 0 88-72 160-160 160zM96 748c-52 0-96 46-96 96 0 52 44 96 96 96s96-38 96-96c0-56-38-96-96-96zM96 876c-12 0-32-12-32-32 0-18 12-32 32-32s32 20 32 32c0 14-12 32-32 32zM352 500c-58 0-96 44-96 96 0 50 44 96 96 96s96-46 96-96c0-52-44-96-96-96zM352 628c-20 0-32-14-32-32 0-20 12-32 32-32s32 12 32 32c0 18-20 32-32 32zM736-64h-320c-160 0-288 128-288 288v320c0 160 128 288 288 288h320c160 0 288-128 288-288v-320c0-160-128-288-288-288zM416 768c-122 0-224-102-224-224v-320c0-122 102-224 224-224h320c122 0 224 102 224 224v320c0 122-102 224-224 224z" />
<glyph unicode="&#x72;" glyph-name="pdf" d="M384 288c0-26-6-44-26-58-12-12-38-18-64-18h-26v-84h-38v230h64c26 0 52-6 64-18 20-14 26-26 26-52zM268 244h20c20 0 32 6 44 12 8 6 14 20 14 32s-6 26-14 32c-6 0-18 6-38 6h-26zM614 244c0-40-12-64-32-90-18-14-50-26-90-26h-64v230h72c38 0 64-12 82-32 26-18 32-44 32-82zM576 244c0 56-26 82-76 82h-32v-166h24c58 0 84 26 84 84zM704 128h-38v230h128v-32h-90v-70h84v-32h-84zM960-32c0-20-12-32-32-32h-832c-20 0-32 12-32 32v666c0 6 0 12 6 18l250 296c6 6 12 12 26 12h582c20 0 32-12 32-32zM896 896h-486v-262c0-20-14-32-32-32h-250v-602h768zM166 666h180v210z" />
<glyph unicode="&#x73;" glyph-name="deploy" d="M674-20h-324c-22 0-38 16-38 42v420h-166c-16 0-32 12-38 22-6 16-6 32 6 48l366 394c6 10 16 10 32 10 10 0 22-4 32-10l362-394c10-4 16-20 16-32 0-22-16-42-44-42h-166v-426c0-12-6-22-12-28-4-4-16-4-26-4zM394 60h242v420c0 22 16 44 44 44h112l-280 296-274-296h112c22 0 44-16 44-44z" />
<glyph unicode="&#x74;" glyph-name="go-to-build" d="M692 846c-12 12-24 18-36 18h-12c-12-6-66-12-114 30-18 18-54 18-72 0l-42-54c-12-12-18-24-18-36s6-24 18-36l108-110-488-488c-18-18-18-54 0-72l90-90c6-6 18-12 36-12 12 0 24 6 36 18l488 488 164-162 174 168zM566 616l72-78-378-380-74 80zM162 62l-78 78 60 62 72-86zM686 580l-102 102-120 122 30 36c66-54 132-42 156-36l290-290-90-96z" />
<glyph unicode="&#x75;" glyph-name="txt" d="M960-32c0-20-12-32-32-32h-832c-20 0-32 12-32 32v666c0 6 0 12 6 18l250 296c6 6 12 12 26 12h582c20 0 32-12 32-32zM896 896h-486v-262c0-20-14-32-32-32h-250v-602h768zM166 666h180v210zM384 448v-64h128v-256h64v256h128v64z" />
<glyph unicode="&#x76;" glyph-name="folder" d="M1018 606c-8 6-22 12-28 12h-170v8c0 54-42 130-104 130h-122l-62 60c-6 0-14 8-20 8h-204c-14 0-22-8-28-8l-54-60h-124c-62 0-102-56-102-110v-574h786c12 0 26 8 34 22l204 476c0 14 0 22-6 36zM68 646c0 20 14 40 34 40h136c8 0 22 8 28 8l54 62h178l62-62c0 0 6-8 20-8h136c8 0 34-34 34-60v-8h-512c-12 0-26-6-34-20l-136-314zM758 140h-676l178 410h676z" />
<glyph unicode="&#x77;" glyph-name="xml" d="M378 128h-46l-56 90-58-90h-38l76 116-70 114h38l58-90 50 90h40l-72-114zM506 128l-64 192c0-26 0-58 0-76v-116h-32v230h50l64-178 64 178h52v-230h-32v116c0 12 0 24 0 44s0 32 0 32l-70-192zM704 128v230h38v-198h96v-32zM960-32c0-20-12-32-32-32h-832c-20 0-32 12-32 32v666c0 6 0 12 6 18l250 296c6 6 12 12 26 12h582c20 0 32-12 32-32zM896 896h-486v-262c0-20-14-32-32-32h-250v-602h768zM166 666h180v210z" />
<glyph unicode="&#x78;" glyph-name="zip" d="M64 960v-1024h896v1024zM896 0h-768v896h320v-64h-64v-64h64v-64h-64v-64h64v-64h-64v-64h64v-64h192v64h-64v64h64v64h-64v64h64v64h-64v64h64v64h256zM436 128h-168v26l116 172h-108v32h160v-26l-116-172h122v-32zM486 128v230h38v-230zM756 288c0-26-8-44-26-58-14-12-38-18-64-18h-26v-84h-38v230h64c26 0 50-6 64-18 18-14 26-26 26-52zM640 250h20c18 0 32 6 44 12 6 6 12 20 12 32 0 14-6 26-12 32s-20 14-38 14h-26z" />
<glyph unicode="&#x79;" glyph-name="artifacts-new" d="M804.001 140l-420-164v480.001l144.001 64v168l276.001 124.001v-672zM500 652v-112l-96-40.001 96 152zM356 51.999l-52-20v484.001l140 224 280.001 127.999v-59.999l-216-100-148-240v-416.001zM219.999 80v484.001l140 224 280.001 127.999v-56l-216-96-148-240v-424l-56-20zM748 820v92.001l-84-36v84l-324-148-148-240v-536l84 32v-80l80 32v-84l476 184v736.001l-84-36z" />
<glyph unicode="&#x7a;" glyph-name="admin-new" d="M512 946.396c-9.584 4.793-19.169 9.584-28.754 9.584h-9.584c-28.754 4.793-57.506 4.793-91.053-4.793-129.392-43.13-230.030-215.652-220.443-378.589 4.793-86.262 38.339-158.144 86.262-196.483-86.262-76.675-153.353-191.691-191.691-325.875-4.793-23.963-9.584-23.963-9.584-23.963l19.169-4.793 172.522-52.715 728.425 234.821c0 0-9.584 33.545-19.169 43.13-52.715 100.638-129.392 162.937-220.443 182.107 43.13 71.884 67.093 158.144 62.299 239.613-4.793 119.807-67.093 206.067-148.561 230.030l-129.392 47.923zM756.406 663.652c4.793-81.469-23.963-162.937-67.093-220.443-19.169-23.963-38.339-47.923-62.299-62.299-14.376-9.584-33.545-19.169-47.923-23.963s-33.545-4.793-47.923-9.584c-23.963 0-47.923 4.793-67.093 19.169-52.715 28.754-86.262 91.053-91.053 172.522-4.793 134.183 71.884 277.951 182.107 311.499 105.431 33.545 196.483-47.923 201.276-186.899zM210.088 596.561c-4.793 134.183 71.884 277.951 182.107 311.499 47.923 14.376 91.053 9.584 124.599-19.169 0 0 4.793-4.793 4.793-4.793-115.014-57.506-201.276-215.652-196.483-369.005 0-38.339 9.584-76.675 23.963-105.431-4.793 0-9.584 0-14.376 0-9.584 4.793-23.963 4.793-33.545 14.376-52.715 28.754-86.262 91.053-91.053 172.522zM229.255 21.487l-129.392 38.339c43.13 124.599 105.431 225.237 191.691 292.329 23.963-9.584 52.715-14.376 81.469-9.584 4.793 0 9.584 0 14.376 0 9.584-9.584 14.376-19.169 23.963-23.963-76.675-71.884-138.975-177.313-182.107-297.121zM277.179 31.072c43.13 110.222 105.431 201.276 182.107 263.575 33.545-14.376 76.675-14.376 119.807 0s86.262 47.923 119.807 86.262c86.262-4.793 158.144-57.506 210.861-143.768l-632.58-206.067z" />
<glyph unicode="&#x7b;" glyph-name="notif-warning" d="M512-64c-284 0-512 228-512 512s228 512 512 512c284 0 512-228 512-512s-228-512-512-512zM512 882c-238 0-434-196-434-434s196-434 434-434c238 0 434 196 434 434s-196 434-434 434zM510 316c-22 0-40 20-40 40v316c0 20 18 38 40 38 20 0 38-18 38-38v-316c0-24-18-40-38-40zM548 224c0-20-16-38-38-38s-40 18-40 38c0 22 18 40 40 40s38-18 38-40z" />
<glyph unicode="&#x7c;" glyph-name="generic" d="M960 768c0 0 0 6 0 6 0 110-282 134-448 134s-448-24-448-134c0 0 0-6 0-6v-646c0-102 268-142 448-142s448 40 448 142zM512 428c116 0 320 14 384 58v-154c0-24-154-82-384-82s-372 64-384 70v166c96-50 268-58 384-58zM128 570v128c90-46 268-58 384-58s320 12 384 58v-142c0-24-154-70-384-70s-372 26-384 84zM512 844c236 0 378-50 384-70-6-26-148-70-384-70s-378 52-384 70c6 26 148 70 384 70zM512 44c-218 0-372 52-384 78v146c96-44 268-76 384-76s320 20 384 64v-134c0-26-166-78-384-78z" />
<glyph unicode="&#x7d;" glyph-name="export" d="M994 472c-6 0-18 6-24 6l-422 428c-12 12-12 24-6 36 0 12 12 18 24 18h428c18 0 30-12 30-30v-428c0-12-6-24-18-30-6 0-6 0-12 0zM638 900l326-326v326zM332 256c-6 0-18 0-24 6-6 18-6 36 6 48l426 428c12 12 32 12 44 0s12-30 0-44l-428-426c-6-6-18-12-24-12zM994-64h-964c-18 0-30 12-30 30v964c0 18 12 30 30 30h150c18 0 30-12 30-30s-12-30-30-30h-120v-904h904v120c0 18 12 30 30 30s30-12 30-30v-150c0-18-12-30-30-30z" />
<glyph unicode="&#x7e;" glyph-name="duplicate" d="M632 238c-6 0-12 0-18 6-12 12-12 30-6 42l78 90h-318c-18 0-30 12-30 30s12 30 30 30h324l-84 114c-12 18-6 36 6 42 12 12 30 6 42-6l122-156c6-12 6-30 0-36l-122-144c-6-6-18-12-24-12zM934 840h-150v72c0 12-12 48-32 48h-450c-12 0-18-12-24-18l-212-222c0 0-6 0-6 0v-652c0-18 12-12 30-12h90v-108c0-18 12-12 30-12h724c18 0 30-6 30 12v844c0 12-12 48-30 48zM302 870v-150h-158zM904-4h-664v60h512c20 0 32-6 32 12v170h-62v-122h-602v542h212c18 0 30-6 30 12v230h360v-302h62v182h120z" />
<glyph unicode="&#xe000;" glyph-name="new" d="M512-64c-284 0-512 228-512 512s228 512 512 512c284 0 512-228 512-512s-228-512-512-512zM512 900c-246 0-452-206-452-452s206-452 452-452c246 0 452 206 452 452s-206 452-452 452zM542 418h272c18 0 30 12 30 30s-12 30-30 30h-272v290c0 12-12 30-30 30s-30-18-30-30v-290h-266c-18 0-30-6-30-18 0-6 6-18 6-24 6-12 18-18 24-18h266v-248c0-6 6-18 12-24s12-6 18-6c18 0 30 12 30 30z" />
<glyph unicode="&#xe001;" glyph-name="ivy" d="M32 678v90h96v-90zM32 276v352h96v-352zM352 276l-140 352h96l64-180 18-58c6 14 6 26 14 32 0 14 6 20 12 32l70 180h96l-140-352h-90zM628 628h102l82-250 84 250h96l-128-340-20-64c-6-20-18-38-24-44-8-14-20-20-26-26-14-6-20-14-38-14-14-6-32-6-52-6s-38 0-52 6l-6 72c14 0 26-8 38-8 20 0 40 8 52 20s20 32 26 52z" />
<glyph unicode="&#xe002;" glyph-name="info" d="M512-64c-284 0-512 228-512 512s228 512 512 512c284 0 512-228 512-512s-228-512-512-512zM512 900c-246 0-452-206-452-452s206-452 452-452c246 0 452 206 452 452s-206 452-452 452zM512 146c-18 0-30 12-30 30v362c0 18 12 30 30 30s30-12 30-30v-362c0-18-12-30-30-30zM572 726c0-34-26-62-60-62s-60 28-60 62c0 32 26 60 60 60s60-28 60-60z" />
<glyph unicode="&#xe003;" glyph-name="clear" d="M512-64c-284 0-512 228-512 512s228 512 512 512c284 0 512-228 512-512s-228-512-512-512zM512 900c-246 0-452-206-452-452s206-452 452-452c246 0 452 206 452 452s-206 452-452 452zM554 448l186 186c12 12 12 30 0 42s-30 12-42 0l-186-186-186 192c-12 12-30 12-42 0s-12-30 0-42l186-186-186-186c-12-12-12-30 0-42 6-6 12-6 24-6s18 0 24 6l186 186 186-186c6-6 12-6 24-6s18 0 24 6c12 12 12 30 0 42z" />
<glyph unicode="&#xe004;" glyph-name="pro" d="M512 902l154-288 326-58-230-236 44-326-294 140-294-140 44 326-230 236 326 58z" />
<glyph unicode="&#xe005;" glyph-name="upload-small" d="M820-64h-616c-14 0-24 10-24 26v128c0 14 10 26 24 26 16 0 26-12 26-26v-102h564v102c0 14 10 26 26 26 14 0 24-12 24-26v-128c0-16-10-26-24-26zM262 382c10-10 24-16 34-6l190 128v-414c0-16 10-26 26-26s26 10 26 26v414l190-128c10-10 24-4 34 6 12 10 6 26-4 36l-230 152c-6 0-10 6-10 6-6 0-12 0-12-6l-230-152c-20-6-26-22-14-36z" />
<glyph unicode="&#xe006;" glyph-name="close" d="M573.978 448l274.452 274.452c17.712 17.712 17.712 44.266 0 61.978s-44.266 17.712-61.978 0l-274.452-274.452-274.452 283.308c-17.712 17.712-44.266 17.712-61.978 0s-17.712-44.266 0-61.978l274.452-274.452-274.452-274.452c-17.712-17.712-17.712-44.266 0-61.978 8.856-8.856 17.712-8.856 35.41-8.856s26.554 0 35.41 8.856l274.452 274.452 274.452-274.452c8.856-8.856 17.712-8.856 35.41-8.856s26.554 0 35.41 8.856c17.712 17.712 17.712 44.266 0 61.978l-292.164 265.61z" />
<glyph unicode="&#xe007;" glyph-name="vcs" d="M788 876l-206-204c6-12 14-32 14-44 0-32-20-64-52-78v-326c32-12 52-44 52-76 0-46-40-84-84-84s-84 38-84 84c0 32 20 64 52 76v326c-6 0-6 6-12 6l-104-108c0-6 8-20 8-26 0-44-40-82-84-82s-90 38-90 82c0 46 38 84 84 84 12 0 26-6 38-14l108 110c0 6 0 12 0 18 0 46 40 84 84 84 6 0 12 0 20 0l204 204c-70 32-140 52-224 52-282 0-512-230-512-512s230-512 512-512c282 0 512 230 512 512 0 180-96 340-236 428z" />
<glyph unicode="&#xe008;" glyph-name="maven" d="M64 128l64 352c12 64 20 122 26 172h134l-6-82c50 70 114 96 178 96 84 0 122-52 122-96 52 64 122 96 186 96 84 0 128-52 128-142 0-24-6-64-12-88l-52-308h-148l52 288c6 20 6 44 6 64 0 38-18 64-50 64-52 0-104-70-122-172l-46-244h-152l50 288c6 20 6 44 6 58 0 38-12 64-50 64-52 0-110-78-128-180l-32-230z" />
<glyph unicode="&#xe00a;" glyph-name="docker-size" d="M1024 34l-232 602c0 12-10 28-22 28h-160c26 0 42 48 42 86 0 76-64 130-140 130s-140-54-140-124c0-44 22-92 48-92h-162c-16 0-26-16-26-28l-232-598c-6-10 0-10 6-16 4-10 10-6 20-6h972c10 0 16-4 20 0 6 6 6 6 6 18zM512 820c48 0 86-38 86-80 0-44-38-82-86-82s-86 38-86 82c0 42 38 80 86 80zM64 70l210 540h476l210-540z" />
<glyph unicode="&#xe00b;" glyph-name="docker-digest" d="M794 210c0-60-8-118-18-176-6-16-16-24-26-20-14 4-18 14-14 30 14 58 20 116 20 174 0 152-102 274-254 298-160 30-322-88-346-248 0-10 0-20-4-30 0-14-10-20-20-20s-20 10-20 26c6 68 24 126 64 180 88 112 204 160 346 132 142-30 228-122 264-264 4-10 4-20 4-34s0-30 4-48zM872 204c0-14 0-30 0-44s-8-24-18-24c-16 0-20 10-20 24 4 50 4 92-6 136-28 152-156 274-306 298-166 30-322-54-404-200-10-14-20-20-30-14-10 4-14 14-10 28 24 50 54 88 98 122 238 216 614 94 688-218 4-34 8-74 8-108zM672 210c6 116-68 208-180 228-126 24-248-72-258-200 0-38-4-78-14-116 0 0 0-6 0-6-6-14-16-20-24-14-10 4-16 14-10 30 10 34 14 68 14 102 0 18 4 38 10 58 28 116 142 200 258 196 122-6 230-94 248-216 6-38 6-78 0-116-4-64-18-122-34-180 0 0 0 0 0-6-4-14-14-20-24-14-10 4-14 14-14 28 10 30 20 60 24 84-4 44 0 92 4 142zM448 722c230 0 430-152 488-372 0-4 0-10 0-10 0-10-4-18-14-18s-20 4-24 14c-6 10-6 20-10 30-64 180-190 292-380 320-152 10-284-38-390-150 0 0-6-6-6-6-10-8-24-8-30-4-8 10-8 20 0 30 36 38 74 68 114 92 78 48 164 74 252 74zM634 200c-4-88-24-176-58-260-6-14-16-18-24-14-10 6-16 14-10 30 24 62 44 126 48 194 4 34 4 68 0 98-10 68-78 118-146 112-74-4-128-64-128-136 0-64-14-122-38-180-10-10-20-16-30-10-10 4-14 14-10 28 26 54 36 108 36 166 0 94 78 166 170 172 92 4 176-64 186-152 4-14 4-34 4-48zM946 522c0-16-4-20-14-20-6 0-16 0-20 4-6 0-6 10-10 10-92 142-224 224-394 244-132 14-254-20-362-92-4 0-4-6-10-6-10-4-18-4-24 6-10 4-4 18 0 24 6 4 6 4 10 10 268 184 638 112 820-166 0-6 4-14 4-14zM552 200c-6-94-26-176-64-260-6-8-10-14-20-14-14 0-24 14-20 30 16 34 24 68 34 102 20 54 30 108 30 160 0 34-24 64-58 64s-60-30-60-64c0-78-18-156-52-224-6-10-16-14-30-10-10 6-14 16-10 30 20 44 34 88 44 136 6 24 6 50 6 74 0 48 34 92 82 102 44 10 92-14 108-64 10-24 10-44 10-62zM488 882c132 0 282-58 410-170 8-10 14-20 8-30-8-14-24-14-34-4-34 24-68 52-102 78-116 72-248 96-384 82-64-4-122-24-182-48-8-6-24 0-28 10-6 14 0 24 14 28 84 34 170 54 298 54zM448 960c112 0 224-20 328-74 0 0 4 0 4-4 14-4 20-20 14-30-4-10-14-14-28-10-34 16-74 30-108 44-106 40-214 44-322 26 0 0-4 0-4 0-16 0-24 4-24 14s4 20 18 24c20 6 44 6 64 10 20 0 40 0 58 0zM472 204c-4-88-24-170-62-248-6-10-16-16-24-10-10 4-16 14-10 30 24 48 38 96 48 150 6 30 6 64 10 92 0 16 10 20 20 26 10 0 18-10 18-26 0-4 0-8 0-14z" />
<glyph unicode="&#xe00c;" glyph-name="home-new" d="M911.365 581.123l-197.218 226.8c-24.653 24.653-69.026 24.653-88.748-9.862l-177.496-295.826c-9.862-14.791-24.653-19.722-44.375-19.722l-345.13 64.095 4.931 14.791 197.218 310.617c9.862 9.862 19.722 19.722 34.513 19.722 0 0 0 0 0 0l389.503-14.791c9.862 0 14.791-4.931 19.722-9.862l266.242-285.964h-59.164zM881.781 176.827l-433.876-162.703-354.99 138.052v345.13l305.686-54.233c34.513-4.931 69.026 9.862 83.817 34.513l177.496 300.757c4.931 4.931 9.862 4.931 14.791 4.931s9.862 0 9.862-4.931l197.218-226.8v-374.712zM995.181 600.843l-261.313 285.964c-14.791 14.791-29.584 24.653-49.304 24.653l-389.503 14.791c0 0 0 0 0 0-29.584 0-54.233-14.791-69.026-39.444l-197.218-310.617c-9.862-9.862-9.862-24.653-4.931-34.513s14.791-19.722 29.584-24.653v-394.434l394.434-157.772 473.32 182.425v389.503h44.375c14.791 0 29.584 9.862 34.513 19.722 9.862 19.722 4.931 34.513-4.931 44.375zM462.696 4.263h-49.304v443.737l49.304 24.653z" />
<glyph unicode="&#xe00d;" glyph-name="builds-new" d="M686.080 637.439c-10.241 5.12-20.48 5.12-35.839 5.12-5.12 0-10.241 0-20.48 0 15.359-51.201 20.48-117.761 5.12-179.2-25.6-107.52-97.281-179.2-163.839-215.040 15.359-25.6 35.839-46.080 66.56-56.319 81.92-25.6 184.321 51.201 225.281 174.080s5.12 245.76-76.799 271.361zM593.92 632.321c-56.319-25.6-107.52-87.040-133.12-163.839-20.48-66.56-20.48-133.12-5.12-184.321 56.319 25.6 117.761 92.16 143.359 184.321 15.359 61.44 15.359 117.761-5.12 163.839zM803.841 355.84c-40.96-122.879-133.12-204.801-225.281-204.801-15.359 0-30.721 5.12-46.080 10.241-102.399 35.839-148.48 179.2-102.399 322.56 40.96 122.879 133.12 204.801 225.281 204.801 15.359 0 30.721-5.12 46.080-5.12 102.399-40.96 148.48-184.321 102.399-327.68zM793.6 821.76l-337.919-81.92-184.321-445.441 179.2-312.32 337.919 112.64 158.72 404.479-153.6 322.56zM609.281 919.039l-312.32-76.799 148.48-61.44 302.080 71.68-138.241 66.56zM81.921 391.681l158.72-71.68 174.080 430.079-174.080 71.68-158.72-430.079zM230.4 94.72l163.839-92.16-153.6 271.361-143.359 61.44 133.12-240.64zM819.2 64.001l-389.12-128-230.399 128-163.839 312.32 184.321 481.28 394.24 102.399 194.56-92.16h5.12l179.2-363.519-174.080-440.32z" />
<glyph unicode="&#xe900;" glyph-name="trashcan" horiz-adv-x="869" d="M644.010 802.082v71.557c0 47.129-35.778 86.361-85.128 86.361h-249.461c-49.103 0-84.881-39.233-84.881-86.361v-71.557h-224.54v-78.959h22.701c0 0 13.324-1.48 20.233-8.389s9.623-22.207 9.623-22.207l46.882-596.387c3.701-72.544 3.701-83.647 88.829-83.647h492.013c85.128 0 85.128 10.857 88.829 83.4l46.882 596.141c0 0 2.714 15.545 9.623 22.454s20.233 8.389 20.233 8.389h22.701v78.959l-224.54 0.247zM276.357 873.639c0 23.688 19.246 37.012 43.674 37.012h226.267c24.428 0 45.895-13.571 45.895-37.012v-71.557h-315.836v71.557zM255.383 170.41l-25.415 473.754h50.090l25.908-473.754h-50.583zM461.664 170.41h-54.284v473.754h54.284v-473.754zM613.66 170.41h-50.336l25.908 473.754h50.090l-25.662-473.754z" />
<glyph unicode="&#xe901;" glyph-name="trash" horiz-adv-x="960" d="M704 0h-441.6c-44.8 0-76.8 32-76.8 76.8v505.6h-51.2v115.2c0 44.8 32 76.8 76.8 76.8h537.6c44.8 0 76.8-32 76.8-76.8v-115.2h-51.2v-499.2c6.4-51.2-25.6-83.2-70.4-83.2zM179.2 627.2h51.2v-550.4c0-19.2 12.8-32 32-32h441.6c19.2 0 32 12.8 32 32v550.4h51.2v70.4c0 19.2-12.8 32-32 32h-544c-19.2 0-32-12.8-32-32v-70.4zM588.8 505.6h44.8v-377.6h-44.8v377.6zM460.8 505.6h44.8v-377.6h-44.8v377.6zM332.8 505.6h44.8v-377.6h-44.8v377.6zM179.2 627.2h608v-44.8h-608v44.8zM665.6 748.8h-44.8v76.8c0 12.8-12.8 25.6-25.6 25.6h-224c-12.8 0-25.6-12.8-25.6-25.6v-70.4h-44.8v70.4c0 38.4 32 70.4 70.4 70.4h224c38.4 0 70.4-32 70.4-70.4v-76.8z" />
<glyph unicode="&#xe902;" glyph-name="unlock, locked-unlock" d="M716.8 486.4c-19.2 0-32 12.8-32 32v172.8c0 96-76.8 172.8-172.8 172.8-89.6 0-166.4-70.4-172.8-153.6 0-6.4 0-12.8 0-19.2 0-19.2-12.8-32-32-32s-32 12.8-32 32c0 6.4 0 19.2 0 25.6 12.8 121.6 115.2 211.2 236.8 211.2 134.4 0 236.8-108.8 236.8-236.8v-172.8c0-19.2-12.8-32-32-32zM748.8 0h-473.6c-76.8 0-147.2 64-147.2 147.2v236.8c0 76.8 64 147.2 147.2 147.2h467.2c76.8 0 147.2-64 147.2-147.2v-236.8c0-83.2-64-147.2-140.8-147.2zM275.2 467.2c-44.8 0-76.8-44.8-76.8-83.2v-236.8c0-44.8 38.4-83.2 83.2-83.2h467.2c44.8 0 83.2 38.4 83.2 83.2v236.8c0 44.8-38.4 83.2-83.2 83.2h-473.6zM544 358.4h-64c-19.2 0-32-12.8-32-32s12.8-32 32-32v-89.6c0-19.2 12.8-38.4 32-38.4s32 19.2 32 38.4v89.6c19.2 0 32 12.8 32 32s-12.8 32-32 32z" />
<glyph unicode="&#xe903;" glyph-name="trashcan-restore" horiz-adv-x="873" d="M627.748 595.784h-92.103c-34.896-70.174-91.34-124.329-169.332-162.658 58.542 28.794 100.112 70.174 124.711 123.948 5.911 13.158 10.488 25.934 13.73 38.71h-374.704v-61.020h17.543c0 0 10.297-1.144 15.636-6.483s7.437-17.162 7.437-17.162l36.231-460.895c2.86-56.063 2.86-64.644 68.648-64.644h380.234c65.788 0 65.788 8.39 68.648 64.453l36.231 460.705c0 0 2.098 12.013 7.437 17.353s15.636 6.483 15.636 6.483h17.543v61.020l-173.527 0.191zM327.413 107.62l-19.641 366.123h38.71l20.022-366.123h-39.091zM486.829 107.62h-41.952v366.123h41.952v-366.123zM604.293 107.62h-38.901l20.022 366.123h38.71l-19.832-366.123zM342.859 919.955c69.22 4.195 124.901-16.781 166.853-62.546s57.969-103.163 48.054-172.001c-10.107-68.839-43.286-129.096-99.73-180.773 40.426 36.994 64.072 80.089 71.318 129.287 7.055 49.198-4.195 90.196-34.324 122.804-29.938 32.608-69.601 47.482-119.181 44.621-49.579-3.051-94.391-22.883-134.817-60.067l-29.366-26.506 43.477-47.482-203.656-11.632 29.938 201.368 43.477-47.482 29.175 26.887c56.635 51.486 119.562 79.517 188.782 83.522z" />
<glyph unicode="&#xe904;" glyph-name="xray-alert" horiz-adv-x="959" d="M927.047-40.034c0 0 0 0 0 0h-891.098c-9.804 0-18.519 5.447-22.877 13.072s-5.447 18.519-1.089 26.145l445.549 875.847c4.357 8.715 14.162 15.251 23.966 15.251s19.609-5.447 23.966-15.251l444.46-873.668c3.268-4.357 4.357-9.804 4.357-15.251 0-14.162-11.983-26.145-27.234-26.145zM80.613 14.434h801.77l-400.885 788.698-400.885-788.698zM517.447 212.698h-69.719c-23.966 0-32.681 25.055-32.681 45.753l-11.983 253.821c0 0 0 1.089 0 1.089 0 5.447 1.089 10.894 4.357 15.251 0 1.089 1.089 3.268 1.089 7.626 2.179 13.072 13.072 22.877 27.234 22.877h94.774c13.072 0 23.966-8.715 27.234-21.787 3.268-4.357 5.447-10.894 5.447-17.43 0 0 0-1.089 0-1.089l-13.072-266.894c0-19.609-11.983-39.217-32.681-39.217zM469.515 267.166h26.145l10.894 237.481h-49.021l11.983-237.481zM515.268 56.919h-66.451c-17.43 0-30.502 14.162-30.502 32.681v66.451c0 18.519 14.162 32.681 30.502 32.681h66.451c17.43 0 30.502-14.162 30.502-32.681v-66.451c0-18.519-13.072-32.681-30.502-32.681zM460.8 100.494h41.396v44.664h-41.396v-44.664z" />
<glyph unicode="&#xe905;" glyph-name="go" d="M512-64c-284.8 0-512 227.2-512 512s227.2 512 512 512 512-227.2 512-512-227.2-512-512-512zM512 899.2c-246.4 0-451.2-204.8-451.2-451.2s204.8-451.2 451.2-451.2c246.4 0 451.2 204.8 451.2 451.2s-204.8 451.2-451.2 451.2zM224 409.6h464l-140.8-140.8c-16-16-16-38.4 0-54.4s38.4-16 54.4 0l204.8 204.8c6.4 6.4 9.6 16 9.6 25.6s-3.2 19.2-9.6 25.6l-204.8 204.8c-6.4 6.4-16 9.6-25.6 9.6s-19.2-3.2-25.6-9.6c-16-16-16-38.4 0-54.4l140.8-140.8h-464c-19.2 0-38.4-16-38.4-38.4 0-12.8 16-32 35.2-32z" />
<glyph unicode="&#xe906;" glyph-name="cocoapods" d="M694.338 348.243c-25.765-142.039-147.324-257.652-334.947-257.652-223.959 0-359.391 165.161-359.391 352.785 0 183.659 128.826 352.785 357.409 352.785 196.212 0 318.431-123.541 336.268-278.132h-161.858c-13.874 78.617-73.992 138.075-172.428 138.075-128.826 0-201.497-101.739-201.497-212.728 0-117.595 81.259-212.728 203.479-212.728 89.848 0 149.306 51.53 168.465 117.595h164.501zM881.961 780.305l-99.097-42.281 123.541-290.023-123.541-290.023 99.097-42.281 83.241 195.551 0.661-0.661 58.137 137.414-142.039 332.305z" />
<glyph unicode="&#xe907;" glyph-name="revoke-api" d="M512 940.8c-275.2 0-499.2-224-499.2-499.2s224-492.8 499.2-492.8 499.2 224 499.2 492.8c0 275.2-224 499.2-499.2 499.2zM512-6.4c-249.6 0-448 198.4-448 448 0 121.6 51.2 236.8 128 313.6l204.8-224-198.4-236.8c-6.4-6.4-6.4-19.2-6.4-32v-70.4c0-25.6 6.4-64 38.4-64h70.4c25.6 0 44.8 25.6 51.2 44.8l6.4 32 57.6 6.4c25.6 0 44.8 19.2 51.2 44.8v38.4h38.4c19.2 0 38.4 12.8 44.8 32l6.4 25.6 230.4-256c-70.4-64-166.4-102.4-275.2-102.4zM467.2 531.2c0 19.2-6.4 32-6.4 38.4 0 83.2 64 147.2 147.2 147.2s147.2-64 147.2-147.2-70.4-147.2-147.2-147.2c-25.6 0-38.4 6.4-57.6 12.8v0l-76.8 83.2-6.4 12.8zM512 409.6l-19.2-51.2h-89.6l-6.4-89.6-96-6.4-12.8-70.4h-32v64l192 224 64-70.4zM832 128l-211.2 230.4c115.2 6.4 204.8 96 204.8 211.2s-96 211.2-211.2 211.2c-108.8 0-192-76.8-211.2-179.2l-172.8 192c76.8 64 172.8 102.4 281.6 102.4 249.6 0 448-198.4 448-448 0-128-51.2-243.2-128-320zM620.8 492.8c51.2 0 89.6 38.4 89.6 89.6s-38.4 89.6-89.6 89.6-89.6-38.4-89.6-89.6 44.8-89.6 89.6-89.6zM620.8 608c12.8 0 25.6-12.8 25.6-25.6s-12.8-25.6-25.6-25.6-25.6 12.8-25.6 25.6 12.8 25.6 25.6 25.6z" />
<glyph unicode="&#xe908;" glyph-name="unexpire" horiz-adv-x="1092" d="M191.147 372.907l54.613-27.307 27.307 54.613 34.133-61.44 54.613 34.133-47.787 61.44h68.267l-6.827 68.267-75.093-27.307 6.827 75.093h-61.44l6.827-75.093-75.093 20.48-13.653-61.44h68.267zM928.427 502.613l-81.92-27.307 13.653 75.093h-68.267l6.827-75.093-75.093 20.48-6.827-61.44h68.267l-47.787-61.44 61.44-27.307 27.307 54.613 27.307-61.44 54.613 34.133-40.96 61.44h68.267zM860.16 741.547v0 0c-27.307 6.827-47.787 13.653-75.093 13.653h-477.867c-170.667 0-307.2-136.533-307.2-307.2 0-143.36 95.573-259.413 232.107-293.547v0 0c27.307-13.653 47.787-13.653 75.093-13.653h477.867c170.667 0 307.2 136.533 307.2 307.2 0 143.36-102.4 259.413-232.107 293.547zM68.267 448c0 129.707 109.227 238.933 238.933 238.933h477.867l-211.627-170.667 6.827 34.133h-68.267l6.827-75.093-75.093 20.48-6.827-61.44h40.96l-252.587-211.627c-95.573 34.133-157.013 122.88-157.013 225.28zM785.067 209.067h-477.867l184.32 150.187 27.307-13.653 27.307 54.613 27.307-61.44 54.613 27.307-40.96 68.267 68.267 6.827-6.827 47.787 218.453 184.32c95.573-40.96 157.013-122.88 157.013-225.28 0-136.533-109.227-238.933-238.933-238.933z" />
<glyph unicode="&#xe909;" glyph-name="expire" horiz-adv-x="1092" d="M375.467 502.613l-75.093-27.307 6.827 75.093h-61.44l6.827-75.093-75.093 27.307-13.653-68.267h68.267l-40.96-61.44 54.613-27.307 27.307 54.613 34.133-61.44 54.613 34.133-47.787 61.44h68.267zM648.533 502.613l-75.093-27.307 6.827 75.093h-68.267l6.827-75.093-75.093 27.307-6.827-68.267h68.267l-47.787-61.44 61.44-27.307 27.307 54.613 27.307-61.44 61.44 34.133-47.787 61.44h68.267zM928.427 502.613l-81.92-27.307 13.653 75.093h-68.267l6.827-75.093-75.093 27.307-6.827-68.267h68.267l-47.787-61.44 61.44-27.307 27.307 54.613 27.307-61.44 54.613 34.133-40.96 61.44h68.267zM785.067 755.2h-477.867c-170.667 0-307.2-136.533-307.2-307.2s136.533-307.2 307.2-307.2h477.867c170.667 0 307.2 136.533 307.2 307.2s-136.533 307.2-307.2 307.2zM785.067 209.067h-477.867c-129.707 0-238.933 109.227-238.933 238.933s109.227 238.933 238.933 238.933h477.867c129.707 0 238.933-102.4 238.933-238.933s-109.227-238.933-238.933-238.933z" />
<glyph unicode="&#xe90a;" glyph-name="pin" d="M537.6 704l-172.8-172.8-128-51.2 134.4-134.4-179.2-185.6-12.8-44.8 51.2 12.8 179.2 179.2 134.4-134.4 51.2 128 172.8 172.8 128 51.2-307.2 307.2-51.2-128zM812.8 544l-76.8-32-179.2-179.2-32-76.8-204.8 204.8 70.4 25.6 185.6 185.6 32 76.8 204.8-204.8z" />
<glyph unicode="&#xe90b;" glyph-name="unpin" d="M537.6 704l-172.8-172.8-128-51.2 134.4-134.4-179.2-185.6-12.8-44.8 51.2 12.8 179.2 179.2 134.4-134.4 51.2 128 172.8 172.8 128 51.2-307.2 307.2-51.2-128zM812.8 544l-76.8-32-179.2-179.2-32-76.8-204.8 204.8 70.4 25.6 185.6 185.6 32 76.8 204.8-204.8zM285.842 807.191l615.373-615.547-31.683-31.674-615.373 615.547 31.683 31.674z" />
<glyph unicode="&#xe90c;" glyph-name="tar" d="M332.8 128h-38.4v198.4h-70.4v32h172.8v-32h-64v-198.4zM556.8 128l-25.6 64h-83.2l-19.2-64h-38.4l83.2 230.4h38.4l89.6-230.4h-44.8zM524.8 224l-19.2 64c0 6.4-6.4 12.8-6.4 19.2s-6.4 12.8-6.4 19.2c0-12.8-6.4-25.6-12.8-44.8l-19.2-57.6h64zM665.6 224v-96h-38.4v230.4h64c32 0 51.2-6.4 64-19.2s19.2-25.6 19.2-51.2c0-25.6-12.8-51.2-44.8-57.6l64-102.4h-44.8l-44.8 96h-38.4zM665.6 249.6h25.6c19.2 0 32 6.4 38.4 12.8s12.8 19.2 12.8 25.6c0 12.8-6.4 19.2-12.8 25.6s-19.2 6.4-38.4 6.4h-25.6v-70.4zM64 960v-1024h896v1024h-896zM896 0h-768v896h320v-64h-64v-64h64v-64h-64v-64h64v-64h-64v-64h64v-64h192v64h-64v64h64v64h-64v64h64v64h-64v64h64v64h256v-896z" />
<glyph unicode="&#xe90d;" glyph-name="gz" d="M416 256h83.2v-115.2c-12.8-6.4-25.6-12.8-38.4-12.8s-25.6 0-38.4 0c-32 0-64 12.8-83.2 32s-25.6 51.2-25.6 89.6c0 38.4 12.8 64 32 83.2s51.2 32 89.6 32c25.6 0 44.8-6.4 70.4-12.8l-12.8-32c-25.6 6.4-44.8 6.4-64 6.4-25.6 0-44.8-6.4-57.6-19.2s-19.2-38.4-19.2-64c0-25.6 6.4-51.2 19.2-64s32-19.2 57.6-19.2c12.8 0 25.6 0 38.4 6.4v57.6h-51.2v32zM716.8 128h-166.4v25.6l115.2 172.8h-115.2v32h160v-25.6l-115.2-172.8h121.6v-32zM64 960v-1024h896v1024h-896zM896 0h-768v896h320v-64h-64v-64h64v-64h-64v-64h64v-64h-64v-64h64v-64h192v64h-64v64h64v64h-64v64h64v64h-64v64h64v64h256v-896z" />
<glyph unicode="&#xe90e;" glyph-name="search" d="M984-8l-290 292c74 72 120 170 120 284 0 216-176 398-398 398s-398-176-398-398c0-222 176-398 398-398 84 0 164 28 232 74l290-290zM86 568c0 188 152 340 340 340s342-152 342-340c0-188-154-342-342-342s-340 154-340 342z" />
<glyph unicode="&#xe90f;" glyph-name="plus-sign" d="M1024 482.133h-477.867v477.867h-68.267v-477.867h-477.867v-68.267h477.867v-477.867h68.267v477.867h477.867z" />
<glyph unicode="&#xe910;" glyph-name="distribution-repo" d="M908.8 400l-41.6-44.8 48-25.6q54.4-48 38.4-121.6t-86.4-96q-16-6.4-64-6.4h-585.6q-67.2 0-105.6 25.6-41.6 35.2-48 83.2-6.4 60.8 25.6 99.2 38.4 44.8 92.8 44.8 57.6 0 64-3.2l16 48 22.4 41.6q32 35.2 83.2 41.6v67.2q-32 0-60.8-12.8-38.4-25.6-44.8-28.8-19.2-12.8-38.4-38.4-19.2-28.8-22.4-48-102.4 0-163.2-73.6-38.4-44.8-38.4-102.4 0-64 16-102.4l38.4-51.2 12.8-9.6q57.6-44.8 108.8-44.8h672q28.8 0 67.2 19.2 9.6 3.2 38.4 25.6l22.4 22.4 19.2 25.6q28.8 54.4 28.8 115.2 0 80-76.8 134.4-16 0-38.4 16zM822.4 732.8l-115.2 115.2-115.2-115.2 35.2-38.4 54.4 54.4v-368l-169.6 172.8h73.6v51.2h-163.2v-163.2h51.2v76.8l233.6-233.6 233.6 233.6v-76.8h51.2v163.2h-163.2v-51.2h76.8l-172.8-172.8v368l54.4-54.4 35.2 38.4z" />
<glyph unicode="&#xe911;" glyph-name="xray" horiz-adv-x="1086" d="M46.829 23.415h994.341v-88.976h-994.341v88.976zM613.463 527.61c39.024 39.024 39.024 101.463 0 140.488s-101.463 39.024-140.488 0c-39.024-39.024-39.024-101.463 0-140.488s101.463-39.024 140.488 0v0zM683.707 256c-74.927-23.415-151.415-29.659-227.902-14.049-120.195 26.537-229.463 104.585-316.878 187.317-48.39 46.829-93.659 98.341-124.878 146.732l-14.049 20.293 12.488 20.293c15.61 24.976 39.024 54.634 64 82.732 110.829 124.878 256 243.512 426.146 259.122 223.22 20.293 454.244-162.341 571.317-340.293l14.049-20.293c-73.366-115.512-167.024-195.122-277.854-274.732l-26.537-18.732-143.61 143.61c-68.683-43.707-160.78-34.341-220.098 24.976-68.683 68.683-68.683 181.073 0 249.756s181.073 68.683 249.756 0c57.756-57.756 68.683-149.854 24.976-220.098l96.78-96.78c70.244 53.073 151.415 120.195 202.927 192-104.585 143.61-298.146 299.707-485.463 282.537-146.732-14.049-277.854-124.878-373.073-231.024-15.61-17.171-31.22-35.902-42.146-51.512 26.537-37.463 60.878-76.488 99.902-112.39 76.488-73.366 173.268-143.61 279.415-165.463 64-14.049 128-7.805 188.878 10.927l21.854-74.927z" />
<glyph unicode="&#xe912;" glyph-name="admin" d="M832-64h-640c-106 0-192 86-192 192v640c0 106 86 192 192 192h640c106 0 192-86 192-192v-640c0-106-86-192-192-192zM192 918c-82 0-150-68-150-150v-640c0-82 68-150 150-150h640c82 0 150 68 150 150v640c0 82-68 150-150 150zM256 556v234c0 12-10 20-22 20s-20-8-20-20v-234c-44-10-78-50-78-96 0-48 34-88 78-98v-256c0-12 8-20 20-20s22 8 22 20v256c44 10 78 50 78 98 0 46-34 86-78 96zM256 408c-6-4-14-4-22-4-6 0-14 0-20 4-20 8-36 28-36 52 0 22 16 42 36 50 6 4 14 6 20 6 8 0 16-2 22-6 20-8 34-28 34-50 0-24-14-44-34-52zM534 814c-56 0-100-44-100-98 0-48 34-88 78-98v-512c0-12 10-20 22-20s20 8 20 20v512c44 10 78 50 78 98 0 54-44 98-98 98zM554 664c-6-4-14-4-20-4-8 0-16 0-22 4-20 8-34 28-34 52 0 22 14 42 34 50 6 4 14 6 22 6 6 0 14-2 20-6 20-8 36-28 36-50 0-24-16-44-36-52zM810 384v406c0 12-8 20-20 20s-22-8-22-20v-406c-44-10-78-48-78-96 0-46 34-86 78-96v-86c0-12 10-20 22-20s20 8 20 20v86c44 10 78 50 78 96 0 48-34 86-78 96zM810 236c-6-2-14-4-20-4-8 0-16 2-22 4-20 10-34 30-34 52 0 24 14 44 34 52 6 2 14 4 22 4 6 0 14-2 20-4 20-8 36-28 36-52 0-22-16-42-36-52z" />
<glyph unicode="&#xe913;" glyph-name="artifacts" d="M896-34l-148 148c20 28 32 60 32 94 0 40-16 80-46 108-58 60-160 60-218 0-60-60-60-158 0-218 28-30 68-46 108-46 34 0 66 12 94 32l148-148zM546 128c-44 44-44 114 0 158 20 22 48 34 78 34s58-12 80-34c22-20 32-48 32-78s-10-58-32-80c-42-42-116-42-158 0zM384 960l-256-252v-772h342v42h-300v684h256v256h428v-512h42v554zM192 704l192 194v-194z" />
<glyph unicode="&#xe914;" glyph-name="builds" d="M354 386c-60 0-108-48-108-106s48-106 108-106c58 0 106 48 106 106s-48 106-106 106zM354 216c-36 0-64 28-64 64s28 64 64 64c34 0 64-28 64-64s-30-64-64-64zM674 278h-66c-4 84-26 116-60 156l46 52c10 8 10 24 0 32-8 8-22 10-30 2l-46-46c-38 32-92 54-134 60v66c0 12-10 22-22 22s-20-10-20-22v-64c-44-2-112-24-156-60l-44 46c-8 8-22 8-30 0s-8-22 0-30l46-58c-34-40-56-72-60-156h-76c-12 0-22-10-22-22s10-22 22-22h76c4-42 26-92 60-132l-46-40c-8-8-8-18 0-26 4-4 10-6 16-6 4 0 10 4 14 8l44 46c44-36 112-58 156-60v-64c0-12 8-22 20-22s22 10 22 22v66c42 6 96 28 134 58l46-46c4-4 10-6 16-6 4 0 10 2 14 6 8 10 8 22 0 30l-46 34c34 40 56 90 60 132h66c12 0 22 10 22 22s-10 22-22 22zM354 66c-118 0-214 96-214 214s96 214 214 214c116 0 212-96 212-214s-96-214-212-214zM810 778c-38 18-86 2-104-36-20-38-4-84 34-104 12-4 22-8 34-8 30 0 58 16 70 44 20 38 4 84-34 104zM806 692c-8-16-30-24-46-16-18 10-26 30-16 48 6 12 18 20 32 20 4 0 10-2 14-4 18-10 26-30 16-48zM1024 790c-4 12-16 18-28 14l-42-14c-16 34-42 64-72 84 0 0 0 0 0 0l20 40c4 10 0 22-10 28s-24 0-28-10l-20-38c0 0 0 0 0 0-22 8-46 12-68 12-16 0-30-2-42-6l-14 42c-4 12-16 18-28 14-10-4-16-16-14-26l14-42c-34-16-62-40-82-74 0 0 0 2-2 2l-38 18c-10 6-24 2-28-8-6-12-2-24 8-30l40-20c0 0 0 0 0 0-12-36-14-74-6-110l-44-14c-10-4-16-16-12-26 2-10 10-16 20-16 2 0 4 2 6 2l42 14c16-34 40-62 72-84 0 0 0 0 0 0l-20-40c-4-10 0-22 10-28 4-2 6-2 10-2 8 0 16 4 18 12l20 38c0 2 0 2 0 2 22-10 46-14 68-14 16 0 30 2 42 6l14-42c4-10 12-14 20-14 4 0 6 0 8 0 10 4 16 16 14 28l-14 40c34 16 62 42 82 74 0 0 0 0 2 0l38-20c4-2 6-2 10-2 8 0 16 4 18 12 6 10 2 22-8 28l-40 20c0 0 0 0 0 0 12 36 16 72 8 110l42 14c10 4 16 16 14 26zM914 638c-26-52-80-84-140-84-24 0-46 4-68 16-76 38-108 132-70 208 28 52 80 84 140 84 24 0 46-4 68-16 38-18 64-50 78-88 12-40 10-82-8-120z" />
<glyph unicode="&#xe915;" glyph-name="home" d="M1000 524l-470 430c-4 4-10 6-16 6h-14c-6 0-10-2-14-6l-470-430c-8-8-10-20-2-30 8-8 22-8 30 0l464 422 462-422c4-4 10-6 14-6 6 0 12 2 16 6 8 10 8 22 0 30zM918 470c-12 0-22-10-22-22v-470h-256v278c0 12-10 22-22 22h-212c-12 0-22-10-22-22v-278h-256v470c0 12-10 22-22 22s-20-10-20-22v-490c0-12 8-22 20-22h300c12 0 20 10 20 22v276h172v-276c0-12 8-22 20-22h300c12 0 20 10 20 22v490c0 12-8 22-20 22z" />
<glyph unicode="&#xe916;" glyph-name="xray-scanning" d="M515.413 925.867c-262.827 0-477.867-215.040-477.867-477.867s215.040-477.867 477.867-477.867c262.827 0 477.867 215.040 477.867 477.867s-211.627 477.867-477.867 477.867zM515.413 38.4c-225.28 0-409.6 184.32-409.6 409.6s184.32 409.6 409.6 409.6c102.4 0 197.973-40.96 269.653-102.4l-88.747-88.747c-51.2 44.373-119.467 75.093-191.147 75.093-153.6 0-279.893-119.467-290.133-273.067-27.307-13.653-44.373-40.96-44.373-71.68 0-40.96 34.133-75.093 75.093-75.093 47.787-95.573 146.773-163.84 259.413-163.84 34.133 0 64.853 6.827 95.573 17.067 13.653-13.653 34.133-23.893 54.613-23.893 40.96 0 75.093 34.133 75.093 75.093 0 10.24-3.413 23.893-6.827 34.133 44.373 51.2 71.68 116.053 71.68 191.147s-27.307 139.947-75.093 191.147l92.16 92.16c71.68-75.093 112.64-174.080 112.64-283.307 0-228.693-180.907-413.013-409.6-413.013zM583.68 202.24c-23.893-6.827-51.2-13.653-78.507-13.653-98.987 0-184.32 54.613-225.28 136.533 23.893 13.653 44.373 37.547 44.373 68.267 0 40.96-30.72 71.68-71.68 75.093 13.653 129.707 122.88 232.107 256 232.107 64.853 0 122.88-23.893 167.253-64.853l-92.16-85.333c-20.48 13.653-40.96 20.48-68.267 20.48-64.853 0-119.467-54.613-119.467-119.467s54.613-119.467 119.467-119.467c64.853 0 119.467 54.613 119.467 119.467 0 27.307-10.24 54.613-27.307 75.093l88.747 88.747c40.96-44.373 64.853-102.4 64.853-167.253 0-61.44-20.48-119.467-58.027-163.84-13.653 10.24-30.72 17.067-47.787 17.067-40.96 0-75.093-34.133-75.093-75.093 0-10.24 0-17.067 3.413-23.893zM600.747 451.413c0-47.787-37.547-85.333-85.333-85.333s-85.333 37.547-85.333 85.333 37.547 85.333 85.333 85.333c13.653 0 30.72-3.413 40.96-10.24l-64.853-64.853 23.893-23.893 64.853 64.853c13.653-17.067 20.48-34.133 20.48-51.2z" />
<glyph unicode="&#xe917;" glyph-name="xray-impact-analysis" d="M686.080 516.267c-40.96 0-71.68-30.72-75.093-68.267h-191.147c0 17.067-10.24 34.133-20.48 47.787l78.507 78.507c10.24-6.827 23.893-10.24 37.547-10.24 40.96 0 75.093 34.133 75.093 75.093s-34.133 75.093-75.093 75.093c-40.96 0-75.093-34.133-75.093-75.093 0-13.653 3.413-30.72 13.653-40.96l-81.92-81.92c-10.24 0-17.067 0-27.307 0-40.96 0-75.093-34.133-75.093-75.093s34.133-75.093 75.093-75.093c6.827 0 10.24 0 13.653 0l85.333-85.333c-3.413-10.24-6.827-20.48-6.827-34.133 0-40.96 34.133-75.093 75.093-75.093s75.093 34.133 75.093 75.093-34.133 75.093-75.093 75.093c-17.067 0-34.133-6.827-47.787-17.067l-75.093 75.093c10.24 6.827 17.067 20.48 23.893 30.72h201.387c10.24-27.307 37.547-47.787 71.68-47.787 40.96 0 75.093 34.133 75.093 75.093s-30.72 78.507-75.093 78.507zM515.413 287.573c23.893 0 40.96-20.48 40.96-40.96s-20.48-40.96-40.96-40.96-40.96 20.48-40.96 40.96 17.067 40.96 40.96 40.96zM686.080 400.213c-23.893 0-40.96 20.48-40.96 40.96s20.48 40.96 40.96 40.96 40.96-20.48 40.96-40.96-17.067-40.96-40.96-40.96zM512 925.867c-262.827 0-477.867-215.040-477.867-477.867s215.040-477.867 477.867-477.867c262.827 0 477.867 215.040 477.867 477.867s-215.040 477.867-477.867 477.867zM512 38.4c-225.28 0-409.6 184.32-409.6 409.6s184.32 409.6 409.6 409.6c225.28 0 409.6-184.32 409.6-409.6s-184.32-409.6-409.6-409.6z" />
<glyph unicode="&#xe918;" glyph-name="opkg" horiz-adv-x="964" d="M571.461 366.416c0-45.57-36.941-82.513-82.513-82.513s-82.513 36.941-82.513 82.513c0 45.57 36.941 82.513 82.513 82.513s82.513-36.941 82.513-82.513zM823.46 404.699c56.495 0 102.212 45.717 102.212 102.212s-45.717 102.212-102.212 102.212c-56.495 0-102.212-45.717-102.212-102.212 0-4.088 0.372-7.805 0.743-11.893l-96.265-40.142c-9.292 14.867-21.185 28.248-34.567 39.027l89.203 249.768c8.92-2.602 18.583-4.088 28.248-4.088 56.495 0 102.212 45.717 102.212 102.212s-45.717 102.212-102.212 102.212c-56.495 0-102.212-45.717-102.212-102.212 0-29.735 12.637-56.495 33.080-75.080l-88.832-248.653c-19.327 7.805-40.142 12.265-62.442 12.265-11.893 0-23.415-1.487-34.567-3.717l-85.487 149.043c20.442 18.583 33.452 45.345 33.452 75.452 0 56.495-45.717 102.212-102.212 102.212s-102.212-45.717-102.212-102.212c0-56.495 45.717-102.212 102.212-102.212 10.035 0 19.327 1.487 28.62 4.088l82.142-142.353c-50.177-27.877-84.372-81.027-84.372-142.725 0 0 0 0 0-0.372l-117.822-31.593c-17.097 32.708-51.292 55.008-90.69 55.008-56.495 0-102.212-45.717-102.212-102.212s45.717-102.212 102.212-102.212 102.212 45.717 102.212 102.212c0 0.743 0 1.487 0 2.23l112.99 30.107c20.070-67.273 82.142-116.335 156.105-116.335 31.593 0 61.327 9.292 86.23 24.903l79.912-110.017c-14.867-17.84-24.158-40.885-24.158-65.787 0-56.495 45.717-102.212 102.212-102.212s102.212 45.717 102.212 102.212-45.717 102.212-102.212 102.212c-14.495 0-28.62-2.973-41.257-8.548l-81.77 112.247c25.647 28.62 41.257 66.53 41.257 107.787 0 15.61-2.23 30.478-6.318 44.973l92.92 38.655c18.212-27.877 49.805-46.46 85.858-46.46zM488.948 251.939c-63.185 0-114.477 51.292-114.477 114.477s51.292 114.477 114.477 114.477c63.185 0 114.477-51.292 114.477-114.477s-51.663-114.477-114.477-114.477z" />
<glyph unicode="&#xe919;" glyph-name="menu-arrow" horiz-adv-x="893" d="M107.466 53.528c7.175 0 21.519 7.175 28.689 14.344l286.897 358.618c7.175 14.344 7.175 28.689 0 43.033l-286.897 358.618c-14.344 14.344-35.864 14.344-50.208 7.175-14.344-14.344-21.519-35.864-7.175-50.208l272.553-337.105-272.553-337.105c-14.344-14.344-7.175-35.864 7.175-50.208 7.175-7.175 14.344-7.175 21.519-7.175zM537.811 53.528c7.175 0 21.519 7.175 28.689 14.344l286.897 358.618c7.175 14.344 7.175 28.689 0 43.033l-286.897 358.618c-14.344 14.344-35.864 14.344-50.208 7.175-14.344-14.344-21.519-35.864-7.175-50.208l272.553-337.105-272.553-337.105c-14.344-14.344-7.175-35.864 7.175-50.208 7.175-7.175 14.344-7.175 21.519-7.175z" />
<glyph unicode="&#xe91a;" glyph-name="upload" d="M984-64h-944c-24 0-40 16-40 40v196c0 24 16 40 40 40s38-16 38-40v-158h868v158c0 24 14 40 38 40s40-16 40-40v-196c0-24-16-40-40-40zM874 674l-354 238c0 8-8 8-16 8 0 0-8-8-16-8l-354-238c-16-14-24-38-8-54 8-16 32-24 56-8l290 196v-638c0-22 16-38 40-38s40 16 40 38v630l290-188c16-16 40-8 56 8 8 16 8 40-24 54z" />
<glyph unicode="&#xe91b;" glyph-name="notification-success" d="M425.984 222.72c-4.096 0-12.288 4.096-16.384 8.192l-118.784 139.264c-4.096 8.192-4.096 20.48 4.096 28.672s20.48 8.192 28.672-4.096l102.4-118.784 274.432 380.928c8.192 8.192 20.48 12.288 28.672 4.096 8.192-4.096 12.288-20.48 4.096-28.672l-286.72-401.408c-4.096-8.192-12.288-8.192-20.48-8.192 4.096 0 4.096 0 0 0zM512-64c-282.624 0-512 229.376-512 512s229.376 512 512 512 512-229.376 512-512c0-282.624-229.376-512-512-512zM512 919.040c-258.048 0-471.040-212.992-471.040-471.040s212.992-471.040 471.040-471.040 471.040 212.992 471.040 471.040-212.992 471.040-471.040 471.040z" />
<glyph unicode="&#xe91c;" glyph-name="notification-warning" d="M512-44.308c271.754 0 492.308 220.554 492.308 492.308s-220.554 492.308-492.308 492.308-492.308-220.554-492.308-492.308 220.554-492.308 492.308-492.308zM512 900.923c248.123 0 452.923-204.8 452.923-452.923s-204.8-452.923-452.923-452.923-452.923 204.8-452.923 452.923 204.8 452.923 452.923 452.923zM555.323 207.754c0-23.927-19.396-43.323-43.323-43.323s-43.323 19.396-43.323 43.323c0 23.927 19.396 43.323 43.323 43.323s43.323-19.396 43.323-43.323zM492.308 688.246h39.385v-319.015h-39.385v319.015z" />
<glyph unicode="&#xe91d;" glyph-name="notification-error" d="M512-64c-282.624 0-512 229.376-512 512s229.376 512 512 512 512-229.376 512-512c0-282.624-229.376-512-512-512zM512 919.040c-258.048 0-471.040-212.992-471.040-471.040s212.992-471.040 471.040-471.040 471.040 212.992 471.040 471.040-212.992 471.040-471.040 471.040zM708.608 235.008c-4.096 0-12.288 0-16.384 4.096l-401.408 405.504c-8.192 8.192-8.192 20.48 0 28.672s20.48 8.192 28.672 0l401.408-401.408c8.192-8.192 8.192-20.48 0-28.672-4.096-8.192-8.192-8.192-12.288-8.192zM303.104 230.912c-4.096 0-12.288 0-16.384 4.096-8.192 8.192-8.192 20.48 0 28.672l409.6 409.6c8.192 8.192 20.48 8.192 28.672 0s8.192-20.48 0-28.672l-409.6-409.6c-4.096 0-8.192-4.096-12.288-4.096z" />
<glyph unicode="&#xe91e;" glyph-name="conan" horiz-adv-x="956" d="M953.6 627.2c0 6.4 6.4 6.4 0 0 0 19.2-6.4 25.6-12.8 32l-422.4 224c-6.4 6.4-19.2 6.4-25.6 0l-409.6-217.6c-12.8-6.4-19.2-19.2-19.2-32 0 0 0-6.4 0-6.4 0-6.4 0-6.4 0-12.8v-409.6c0-12.8 6.4-19.2 19.2-25.6l364.8-198.4c0 0 0 0 0 0 6.4-12.8 19.2-19.2 25.6-19.2 0 0 0 0 6.4 0s6.4-6.4 12.8-6.4c6.4 0 0 0 6.4 6.4 12.8 0 12.8 6.4 12.8 12.8l428.8 211.2c12.8 6.4 19.2 12.8 19.2 25.6v403.2c0 6.4 0 12.8-6.4 12.8zM505.6 819.2l352-185.6-345.6-192-345.6 192 339.2 185.6zM512 371.2c6.4 0 12.8 0 12.8 6.4l179.2 96v-339.2l-192-96v332.8c0 0 0 0 0 0zM448 44.8l-320 179.2v358.4l339.2-185.6c-12.8-6.4-19.2-19.2-19.2-32v-320zM768 166.4v345.6l128 70.4v-352l-128-64zM486.4 588.8c-12.8 0-19.2 6.4-32 19.2-12.8 6.4-19.2 25.6-12.8 38.4s19.2 25.6 38.4 38.4c12.8 6.4 25.6 6.4 38.4 12.8 38.4 6.4 76.8 0 96-19.2 6.4-6.4 6.4-12.8 12.8-19.2l6.4-32 83.2 38.4-6.4 12.8c-6.4 12.8-12.8 25.6-25.6 32-38.4 32-108.8 51.2-185.6 38.4-19.2-6.4-44.8-12.8-70.4-19.2-44.8-19.2-70.4-44.8-83.2-76.8s0-64 32-83.2c19.2-12.8 32-25.6 57.6-32l12.8-6.4 89.6 44.8-51.2 12.8z" />
<glyph unicode="&#xe91f;" glyph-name="xray-menu-admin" d="M512 761.224c-6.024 3.012-12.047 6.024-18.071 6.024h-6.024c-18.071 3.012-36.141 3.012-57.224-3.012-81.318-27.106-144.565-135.529-138.541-237.929 3.012-54.212 24.094-99.388 54.212-123.482-54.212-48.188-96.376-120.471-120.471-204.8-3.012-15.059-6.024-15.059-6.024-15.059l12.047-3.012 108.424-33.129 457.788 147.576c0 0-6.024 21.082-12.047 27.106-33.129 63.247-81.318 102.4-138.541 114.447 27.106 45.176 42.165 99.388 39.153 150.588-3.012 75.294-42.165 129.506-93.365 144.565l-81.318 30.118zM665.6 583.529c3.012-51.2-15.059-102.4-42.165-138.541-12.047-15.059-24.094-30.118-39.153-39.153-9.035-6.024-21.082-12.047-30.118-15.059s-21.082-3.012-30.118-6.024c-15.059 0-30.118 3.012-42.165 12.047-33.129 18.071-54.212 57.224-57.224 108.424-3.012 84.329 45.176 174.682 114.447 195.765 66.259 21.082 123.482-30.118 126.494-117.459zM322.259 541.365c-3.012 84.329 45.176 174.682 114.447 195.765 30.118 9.035 57.224 6.024 78.306-12.047 0 0 3.012-3.012 3.012-3.012-72.282-36.141-126.494-135.529-123.482-231.906 0-24.094 6.024-48.188 15.059-66.259-3.012 0-6.024 0-9.035 0-6.024 3.012-15.059 3.012-21.082 9.035-33.129 18.071-54.212 57.224-57.224 108.424zM334.306 179.953l-81.318 24.094c27.106 78.306 66.259 141.553 120.471 183.718 15.059-6.024 33.129-9.035 51.2-6.024 3.012 0 6.024 0 9.035 0 6.024-6.024 9.035-12.047 15.059-15.059-48.188-45.176-87.341-111.435-114.447-186.729zM364.424 185.976c27.106 69.271 66.259 126.494 114.447 165.647 21.082-9.035 48.188-9.035 75.294 0s54.212 30.118 75.294 54.212c54.212-3.012 99.388-36.141 132.518-90.353l-397.553-129.506z" />
<glyph unicode="&#xe920;" glyph-name="xray-menu-alerts" d="M786.071 285.365l-201.788 493.929c-3.012 6.024-12.047 9.035-12.047 9.035v0h-75.294c-6.024 0-12.047-3.012-15.059-9.035l-225.882-608.376c-3.012-6.024 0-15.059 9.035-18.071l96.376-45.176c0 0 3.012-3.012 6.024-3.012s3.012 0 6.024 0l406.588 156.612c3.012 0 6.024 3.012 9.035 9.035 0 6.024 0 12.047-3.012 15.059zM505.976 758.212h45.176l-189.741-614.4-69.271 33.129 213.835 581.271zM391.529 146.824l180.706 581.271 180.706-439.718-361.412-141.553zM566.212 357.647v0c9.035 0 15.059 0 15.059 9.035l21.082 153.6c0 6.024 0 9.035-6.024 12.047-3.012 3.012-9.035 3.012-15.059 0l-36.141-15.059c-6.024-3.012-9.035-9.035-9.035-15.059l15.059-135.529c3.012-6.024 9.035-9.035 15.059-9.035zM575.247 318.494c-3.012 0-3.012 0-6.024 0-12.047 0-24.094-9.035-27.106-24.094-6.024-18.071 0-36.141 12.047-39.153 3.012 0 3.012 0 6.024 0 12.047 0 24.094 9.035 27.106 24.094 6.024 15.059 0 33.129-12.047 39.153z" />
<glyph unicode="&#xe921;" glyph-name="xray-ignore-alert" horiz-adv-x="959" d="M927.047-40.034v0h-891.098c-9.804 0-18.519 5.447-22.877 13.072s-5.447 18.519-1.089 26.145l445.549 875.847c4.357 8.715 14.162 15.251 23.966 15.251s19.609-5.447 23.966-15.251l444.46-873.668c3.268-4.357 4.357-9.804 4.357-15.251 0-14.162-11.983-26.145-27.234-26.145zM80.613 14.434h801.77l-400.885 788.698-400.885-788.698zM517.447 212.698h-69.719c-23.966 0-32.681 25.055-32.681 45.753l-11.983 253.821v1.089c0 5.447 1.089 10.894 4.357 15.251 0 1.089 1.089 3.268 1.089 7.626 2.179 13.072 13.072 22.877 27.234 22.877h94.774c13.072 0 23.966-8.715 27.234-21.787 3.268-4.357 5.447-10.894 5.447-17.43v-1.089l-13.072-266.894c0-19.609-11.983-39.217-32.681-39.217zM469.515 267.166h26.145l10.894 237.481h-49.021l11.983-237.481zM515.268 56.919h-66.451c-17.43 0-30.502 14.162-30.502 32.681v66.451c0 18.519 14.162 32.681 30.502 32.681h66.451c17.43 0 30.502-14.162 30.502-32.681v-66.451c0-18.519-13.072-32.681-30.502-32.681zM460.8 100.494h41.396v44.664h-41.396v-44.664zM704.852 447.817l29.598-45.726-659.368-426.803-29.598 45.726 659.368 426.803z" />
<glyph unicode="&#xe922;" glyph-name="composer" d="M256 608c25.6 0 44.8-6.4 57.6-25.6s19.2-44.8 19.2-76.8c0-32-6.4-64-19.2-89.6s-25.6-51.2-44.8-70.4-38.4-25.6-64-25.6c-12.8 0-25.6 0-38.4 6.4s-19.2 19.2-25.6 32v0c0-25.6-6.4-51.2-12.8-76.8l-19.2-83.2h-70.4l83.2 403.2h57.6l-6.4-38.4c25.6 32 51.2 44.8 83.2 44.8zM224 550.4c-12.8 0-19.2-6.4-32-19.2s-19.2-25.6-25.6-44.8-6.4-38.4-6.4-64c0-12.8 0-25.6 6.4-32s12.8-6.4 25.6-6.4c12.8 0 19.2 0 32 12.8s19.2 32 25.6 51.2 6.4 38.4 6.4 57.6c0 32-6.4 44.8-32 44.8zM601.6 326.4h-76.8l32 166.4c0 12.8 6.4 19.2 6.4 32 0 19.2-6.4 32-25.6 32-12.8 0-32-6.4-44.8-25.6s-19.2-57.6-25.6-89.6l-25.6-115.2h-76.8l83.2 390.4h76.8c-6.4-32-12.8-57.6-12.8-70.4s-12.8-44.8-25.6-76.8v0c12.8 12.8 25.6 19.2 38.4 32s25.6 12.8 44.8 12.8c25.6 0 38.4-6.4 51.2-19.2s19.2-38.4 19.2-64c0-12.8 0-25.6-6.4-44.8l-32-160zM870.4 608c25.6 0 44.8-6.4 57.6-25.6s19.2-44.8 19.2-76.8c0-32-6.4-64-19.2-89.6s-25.6-51.2-44.8-70.4-44.8-25.6-64-25.6c-12.8 0-25.6 0-38.4 6.4s-19.2 19.2-25.6 32v0c0-25.6-6.4-51.2-12.8-76.8l-19.2-83.2h-76.8l83.2 403.2h57.6l-6.4-44.8c32 38.4 57.6 51.2 89.6 51.2zM838.4 550.4c-12.8 0-19.2-6.4-32-19.2s-19.2-25.6-25.6-44.8-12.8-38.4-12.8-64c0-12.8 0-25.6 6.4-32s19.2-6.4 32-6.4c12.8 0 19.2 6.4 32 19.2s19.2 25.6 25.6 44.8 6.4 38.4 6.4 57.6c0 32-6.4 44.8-32 44.8z" />
<glyph unicode="&#xe923;" glyph-name="xray-menu-components" d="M512 399.812c-3.012 0-6.024 0-6.024 0l-271.059 123.482c-6.024 3.012-9.035 9.035-9.035 15.059s3.012 12.047 9.035 15.059l271.059 126.494c3.012 3.012 9.035 3.012 15.059 0l271.059-123.482c6.024-3.012 9.035-9.035 9.035-15.059s-3.012-12.047-9.035-15.059l-271.059-126.494c-6.024 3.012-9.035 0-9.035 0zM280.094 541.365l231.906-105.412 231.906 108.424-231.906 105.412-231.906-108.424zM512 170.918c-3.012 0-6.024 0-6.024 3.012l-271.059 141.553c-6.024 3.012-9.035 9.035-9.035 12.047v213.835h30.118v-204.8l252.988-135.529 259.012 144.565v198.776h30.118v-207.812c0-6.024-3.012-9.035-9.035-12.047l-271.059-153.6c-3.012 0-6.024 0-6.024 0zM496.941 417.882h30.118v-231.906h-30.118v231.906z" />
<glyph unicode="&#xe924;" d="M477.675 397.482c-2.819-8.411-11.276-16.821-19.734-16.821s-19.734 8.411-19.734 16.821l-53.563 291.571c-2.819 8.411 8.457 22.429 22.553 22.429h101.487c14.095 0 22.553-14.018 22.553-22.429l-53.563-291.571z" />
<glyph unicode="&#xe925;" d="M497.409 276.929c0-21.677-17.67-39.25-39.467-39.25s-39.467 17.573-39.467 39.25c0 21.677 17.67 39.25 39.467 39.25s39.467-17.573 39.467-39.25z" />
<glyph unicode="&#xe926;" glyph-name="xray-menu-home" d="M755.953 529.318l-120.471 138.541c-15.059 15.059-42.165 15.059-54.212-6.024l-108.424-180.706c-6.024-9.035-15.059-12.047-27.106-12.047l-210.824 39.153 3.012 9.035 120.471 189.741c6.024 6.024 12.047 12.047 21.082 12.047 0 0 0 0 0 0l237.929-9.035c6.024 0 9.035-3.012 12.047-6.024l162.635-174.682h-36.141zM737.882 282.353l-265.035-99.388-216.847 84.329v210.824l186.729-33.129c21.082-3.012 42.165 6.024 51.2 21.082l108.424 183.718c3.012 3.012 6.024 3.012 9.035 3.012s6.024 0 6.024-3.012l120.471-138.541v-228.894zM807.153 541.365l-159.624 174.682c-9.035 9.035-18.071 15.059-30.118 15.059l-237.929 9.035c0 0 0 0 0 0-18.071 0-33.129-9.035-42.165-24.094l-120.471-189.741c-6.024-6.024-6.024-15.059-3.012-21.082s9.035-12.047 18.071-15.059v-240.941l240.941-96.376 289.129 111.435v237.929h27.106c9.035 0 18.071 6.024 21.082 12.047 6.024 12.047 3.012 21.082-3.012 27.106zM481.882 176.941h-30.118v271.059l30.118 15.059z" />
<glyph unicode="&#xe927;" glyph-name="xray-menu-reports" d="M361.412 167.906c-111.435 36.141-168.659 192.753-123.482 334.306 39.153 120.471 132.518 204.8 228.894 207.812 3.012 0 9.035-3.012 12.047-6.024s3.012-9.035 3.012-15.059l-6.024-39.153-30.118 3.012 3.012 21.082c-75.294-12.047-150.588-84.329-180.706-183.718-42.165-126.494 6.024-262.024 102.4-295.153l-9.035-27.106zM554.165 490.165l-54.212 60.235c-3.012 3.012-3.012 6.024-3.012 12.047l21.082 168.659c0 6.024 9.035 9.035 15.059 12.047 24.094 21.082 69.271 21.082 69.271 21.082v-30.118c-30.118 0-36.141-3.012-54.212-12.047l-21.082-153.6 48.188-57.224-21.082-21.082zM448.753 137.788c-18.071 0-33.129 3.012-48.188 9.035-105.412 36.141-153.6 180.706-105.412 322.259 39.153 117.459 129.506 198.776 222.871 201.788 3.012 0 9.035-3.012 12.047-6.024s3.012-6.024 3.012-12.047l-18.071-222.871 153.6 75.294c3.012 3.012 9.035 3.012 15.059 0 3.012-3.012 6.024-6.024 9.035-12.047 6.024-48.188 0-102.4-15.059-150.588-42.165-120.471-135.529-204.8-228.894-204.8zM499.953 637.741c-75.294-12.047-144.565-81.318-177.694-180.706-42.165-126.494-3.012-252.988 87.341-283.106 12.047-3.012 27.106-6.024 39.153-6.024 81.318 0 162.635 75.294 195.765 180.706 12.047 39.153 18.071 78.306 15.059 117.459l-159.624-75.294c-6.024-3.012-12.047-3.012-15.059 0s-6.024 9.035-6.024 15.059l21.082 231.906zM569.224 487.153c-3.012 0-6.024 0-9.035 3.012s-6.024 9.035-6.024 15.059l21.082 249.976c0 9.035 6.024 15.059 15.059 15.059 21.082 0 36.141-3.012 51.2-9.035 63.247-21.082 108.424-84.329 120.471-168.659 0-6.024-3.012-12.047-9.035-15.059l-177.694-84.329c-3.012-6.024-3.012-6.024-6.024-6.024zM602.353 737.129l-18.071-210.824 144.565 69.271c-12.047 69.271-48.188 117.459-99.388 135.529-9.035 3.012-18.071 3.012-27.106 6.024z" />
<glyph unicode="&#xe928;" d="M987.429 448c0-262.572-212.857-475.429-475.429-475.429s-475.429 212.857-475.429 475.429c0 262.572 212.857 475.429 475.429 475.429s475.429-212.857 475.429-475.429z" />
<glyph unicode="&#xe929;" d="M566.857 437.029l146.286 146.286c14.629 14.629 14.629 36.571 0 51.2s-36.571 14.629-51.2 0l-146.286-146.286-146.286 146.286c-14.629 14.629-36.571 14.629-51.2 0s-14.629-36.571 0-51.2l146.286-146.286-146.286-146.286c-14.629-14.629-14.629-36.571 0-51.2 7.314-7.314 18.286-10.971 25.6-10.971s18.286 3.657 25.6 10.971l146.286 146.286 146.286-146.286c7.314-7.314 18.286-10.971 25.6-10.971s18.286 3.657 25.6 10.971c14.629 14.629 14.629 36.571 0 51.2l-146.286 146.286z" />
<glyph unicode="&#xe92a;" d="M980.732 448c0-258.874-209.859-468.732-468.732-468.732s-468.732 209.859-468.732 468.732c0 258.874 209.859 468.732 468.732 468.732s468.732-209.859 468.732-468.732z" />
<glyph unicode="&#xe92b;" glyph-name="xray-menu-watches" d="M734.871 583.529v0l-436.706 165.647c-3.012 0-9.035 0-12.047 0l-36.141-15.059-30.118-12.047c-6.024-3.012-9.035-9.035-9.035-18.071l60.235-394.541c-3.012-87.341 42.165-165.647 108.424-186.729 9.035-3.012 21.082-3.012 30.118-3.012 69.271 0 129.506 63.247 147.576 153.6v3.012c12.047-18.071 27.106-30.118 45.176-39.153 15.059-6.024 30.118-9.035 45.176-9.035 60.235 0 120.471 51.2 147.576 126.494 36.141 93.365 9.035 192.753-60.235 228.894zM243.953 697.976l9.035 3.012 210.824-204.8c-3.012 0-3.012 0-6.024 3.012-9.035 3.012-21.082 3.012-30.118 3.012-57.224 0-108.424-45.176-135.529-111.435l-48.188 307.2zM530.071 279.341c-18.071-84.329-81.318-141.553-141.553-126.494-63.247 18.071-99.388 105.412-81.318 192.753 15.059 75.294 63.247 129.506 117.459 129.506 9.035 0 15.059 0 24.094-3.012 39.153-12.047 66.259-48.188 78.306-96.376 0-15.059 3.012-27.106 6.024-39.153 0-21.082 0-39.153-3.012-57.224zM533.082 438.965v0 0 0zM539.106 466.071l-256 249.976 12.047 3.012 349.365-132.518c-45.176-18.071-84.329-60.235-102.4-117.459-3.012-3.012-3.012-3.012-3.012-3.012zM771.012 363.671c-21.082-63.247-69.271-105.412-117.459-105.412-12.047 0-21.082 3.012-33.129 6.024-27.106 12.047-45.176 39.153-54.212 72.282 0 15.059-3.012 27.106-6.024 42.165 0 27.106 3.012 54.212 12.047 81.318 21.082 63.247 69.271 105.412 117.459 105.412 12.047 0 21.082-3.012 33.129-6.024 54.212-27.106 75.294-114.447 48.188-195.765zM439.718 417.882c-6.024 0-12.047 0-18.071 0-39.153 0-75.294-36.141-84.329-84.329-12.047-57.224 15.059-114.447 57.224-126.494 6.024-3.012 12.047-3.012 18.071-3.012 39.153 0 75.294 36.141 84.329 84.329 12.047 60.235-12.047 114.447-57.224 129.506zM469.835 294.4c-9.035-39.153-36.141-66.259-63.247-60.235-27.106 9.035-45.176 51.2-36.141 93.365 6.024 36.141 30.118 60.235 54.212 60.235 3.012 0 6.024 0 9.035 0 27.106-9.035 42.165-51.2 36.141-93.365zM704.753 508.235c-9.035 3.012-18.071 6.024-27.106 6.024-36.141 0-69.271-27.106-84.329-69.271-18.071-54.212-3.012-111.435 39.153-129.506 9.035-3.012 18.071-6.024 27.106-6.024 36.141 0 69.271 27.106 84.329 69.271 18.071 54.212 3.012 111.435-39.153 129.506zM713.788 387.765c-12.047-36.141-45.176-57.224-69.271-48.188-24.094 12.047-36.141 54.212-21.082 93.365 9.035 30.118 33.129 51.2 54.212 51.2 6.024 0 9.035 0 15.059-3.012 24.094-12.047 36.141-54.212 21.082-93.365z" />
<glyph unicode="&#xe92c;" d="M418.254 235.268c0 0 0 0 0 0-10.817 0-21.634 7.211-28.845 14.423l-115.38 147.831c-10.817 14.423-10.817 39.662 7.211 50.479 14.423 10.817 39.662 10.817 50.479-7.211l90.141-111.775 248.789 263.211c14.423 14.423 36.056 14.423 50.479 0s14.423-36.056 0-50.479l-277.634-292.056c-7.211-10.817-14.423-14.423-25.239-14.423z" />
<glyph unicode="&#xe92d;" glyph-name="addons-arrow-right" horiz-adv-x="614" d="M122.88-53.76l-71.68 71.68 409.6 414.72-409.6 409.6 71.68 71.68 450.56-450.56c20.48-20.48 20.48-51.2 0-71.68l-450.56-445.44z" />
<glyph unicode="&#xe92e;" glyph-name="addons-arrow-left" horiz-adv-x="614" d="M491.12-53.76l71.68 71.68-409.6 414.72 409.6 409.6-71.68 71.68-450.56-450.56c-20.48-20.48-20.48-51.2 0-71.68l450.56-445.44z" />
<glyph unicode="&#xe92f;" glyph-name="twitter" horiz-adv-x="1195" d="M1053.867 682.667c0-8.533 0-21.333 0-29.867 0-311.467-238.933-669.867-669.867-669.867-132.267 0-256 38.4-362.667 106.667 17.067-4.267 38.4-4.267 55.467-4.267 110.933 0 213.333 38.4 294.4 102.4-102.4 0-192 68.267-221.867 162.133 12.8-4.267 29.867-4.267 42.667-4.267 21.333 0 42.667 4.267 64 8.533-106.667 21.333-187.733 115.2-187.733 230.4 0 0 0 0 0 4.267 29.867-17.067 68.267-29.867 106.667-29.867-64 42.667-106.667 115.2-106.667 196.267 0 42.667 12.8 85.333 29.867 119.467 115.2-140.8 290.133-234.667 486.4-247.467-4.267 17.067-4.267 34.133-4.267 55.467 0 128 106.667 234.667 234.667 234.667 68.267 0 128-29.867 170.667-72.533 55.467 8.533 102.4 29.867 149.333 55.467-17.067-55.467-55.467-102.4-102.4-132.267 46.933 4.267 93.867 17.067 136.533 38.4-29.867-51.2-68.267-89.6-115.2-123.733v0z" />
<glyph unicode="&#xe930;" glyph-name="screw" d="M757.76 89.6c184.32 122.88 235.52 358.4 133.12 552.96l-696.32-481.28c143.36-163.84 378.88-194.56 563.2-71.68zM266.24 806.4c-184.32-133.12-235.52-368.64-133.12-563.2l706.56 491.52c-143.36 163.84-389.12 194.56-573.44 71.68z" />
<glyph unicode="&#xe931;" glyph-name="xray-moitoring-alert-new" d="M544.914 327.314c-3.657-10.971-14.629-21.943-25.6-21.943s-25.6 10.971-25.6 21.943l-69.486 380.343c-3.657 14.629 10.971 32.914 29.257 32.914h131.657c18.286 0 29.257-18.286 29.257-32.914l-69.486-380.343zM570.514 170.057c0-28.277-22.923-51.2-51.2-51.2s-51.2 22.923-51.2 51.2c0 28.277 22.923 51.2 51.2 51.2s51.2-22.923 51.2-51.2z" />
<glyph unicode="&#xe932;" glyph-name="compress" horiz-adv-x="878" d="M438.857 411.429v-256c0-20-16.571-36.571-36.571-36.571-9.714 0-18.857 4-25.714 10.857l-82.286 82.286-189.714-189.714c-3.429-3.429-8.571-5.714-13.143-5.714s-9.714 2.286-13.143 5.714l-65.143 65.143c-3.429 3.429-5.714 8.571-5.714 13.143s2.286 9.714 5.714 13.143l189.714 189.714-82.286 82.286c-6.857 6.857-10.857 16-10.857 25.714 0 20 16.571 36.571 36.571 36.571h256c20 0 36.571-16.571 36.571-36.571zM870.286 795.429c0-4.571-2.286-9.714-5.714-13.143l-189.714-189.714 82.286-82.286c6.857-6.857 10.857-16 10.857-25.714 0-20-16.571-36.571-36.571-36.571h-256c-20 0-36.571 16.571-36.571 36.571v256c0 20 16.571 36.571 36.571 36.571 9.714 0 18.857-4 25.714-10.857l82.286-82.286 189.714 189.714c3.429 3.429 8.571 5.714 13.143 5.714s9.714-2.286 13.143-5.714l65.143-65.143c3.429-3.429 5.714-8.571 5.714-13.143z" />
<glyph unicode="&#xe933;" glyph-name="external-link" d="M976.694 948.641h-299.813c-26.129 0-47.306-21.177-47.306-47.306s21.177-47.306 47.306-47.306h185.607l-453.609-453.609c-18.476-18.476-18.476-48.425 0-66.901 9.24-9.235 21.345-13.855 33.45-13.855s24.21 4.62 33.45 13.855l453.609 453.609v-185.612c0-26.129 21.177-47.306 47.306-47.306s47.306 21.177 47.306 47.306v299.813c0 26.134-21.177 47.311-47.306 47.311zM783.172 554.217c-26.129 0-47.306-21.177-47.306-47.306v-464.941h-641.255v641.255h492.915c26.129 0 47.306 21.177 47.306 47.306s-21.177 47.306-47.306 47.306h-540.22c-26.129 0-47.306-21.177-47.306-47.306v-735.866c0-26.129 21.177-47.306 47.306-47.306h735.866c26.129 0 47.306 21.177 47.306 47.306v512.247c0 26.129-21.177 47.306-47.306 47.306z" />
<glyph unicode="&#xe934;" glyph-name="up-arrow" d="M978.405 225.605l-466.407 349.803-466.404-349.803-45.595 60.793 511.999 383.999 512.001-383.999z" />
<glyph unicode="&#xe935;" glyph-name="down-arrow" d="M978.405 670.395l-466.407-349.803-466.404 349.803-45.595-60.793 511.999-383.999 512.001 383.999z" />
<glyph unicode="&#xe936;" glyph-name="icon-envelop" d="M938.667 765.867h-853.333c-4.267 0-8.533-2.133-12.8-4.267 0 0-2.133-2.133-2.133-2.133-4.267-4.267-6.4-6.4-6.4-8.533 0 0 0-2.133 0-2.133s0-2.133 0-4.267v-593.067c0-10.667 10.667-21.333 21.333-21.333h853.333c10.667 0 21.333 10.667 21.333 21.333v593.067c0 10.667-8.533 21.333-21.333 21.333zM885.333 723.2l-373.333-328.533-371.2 328.533h744.533zM106.667 697.6l281.6-249.6-281.6-238.933v488.533zM130.133 172.8l290.133 247.467 78.933-68.267c0 0 2.133-2.133 4.267-2.133 0 0 2.133-2.133 2.133-2.133 2.133-2.133 4.267-2.133 8.533-2.133s4.267 0 8.533 2.133c0 0 2.133 0 2.133 2.133 2.133 0 2.133 0 4.267 2.133l83.2 72.533 273.067-251.733h-755.2zM917.333 196.267l-277.333 256 277.333 243.2v-499.2z" />
</font>
</defs>
</svg>
